<svg width="147" height="104" viewBox="0 0 147 104" fill="none" xmlns="http://www.w3.org/2000/svg">
<path d="M141.419 99.775H4.22631V4.225H141.419V99.775ZM145.645 0H0V104H145.645V0Z" fill="black"/>
<path d="M36.2487 67.7616C38.6869 67.7616 44.8638 67.2741 49.4153 64.0241V66.6241H58.6806V55.4116L62.5817 51.3491L71.0344 66.4616H82.0878L69.4089 44.8491L81.7628 31.1991H70.3843L58.6806 44.6866V18.8491H49.4153V22.9116C46.6518 19.8241 41.9379 17.5491 34.9483 17.5491C19.506 17.5491 16.5801 26.9741 16.5801 32.1741C16.5801 39.3241 20.4812 43.3866 27.3084 45.0116L36.8988 47.4491C41.9379 48.7491 45.514 49.5616 45.514 53.2991C45.514 58.3366 40.3124 59.4741 35.4359 59.4741C26.8208 59.4741 25.3577 54.4366 25.3577 51.6741H15.9298C15.9298 57.6866 18.8557 67.7616 36.2487 67.7616ZM42.5881 39.3241L30.8845 36.5616C28.9339 36.0741 25.8454 35.2616 25.8454 31.5241C25.8454 27.2991 30.3968 25.8366 34.1355 25.8366C42.7507 25.8366 43.5634 30.8741 43.8885 32.9866H49.4153V41.9241C47.4646 40.6241 45.0263 39.9741 42.5881 39.3241ZM17.0678 82.8741C17.5553 83.0366 18.043 83.1991 18.6933 83.1991C19.8311 83.1991 20.3188 82.5491 20.3188 81.8991C20.3188 81.2491 19.8311 80.4366 19.6685 79.7866L14.9546 70.0366H18.8557L22.4318 78.3241L26.008 70.0366H29.7467L24.3825 81.5741C22.9195 84.8241 21.6192 85.9616 19.1808 85.9616C18.3682 85.9616 17.5553 85.7991 17.2302 85.6366V82.8741H17.0678ZM36.7362 74.4241H39.8247V85.7991H36.7362V81.2491C36.0861 81.4116 34.4606 81.7366 32.9977 81.7366C30.3968 81.7366 29.0964 80.2741 29.0964 77.8366V74.4241H32.1849V77.1866C32.1849 78.8116 32.51 79.4616 33.9729 79.4616C34.7858 79.4616 36.0861 79.2991 36.5738 79.1366V74.4241H36.7362ZM49.5777 85.7991C49.4153 85.3116 49.4153 85.1491 49.4153 84.6616C48.4399 85.6366 47.1395 86.1241 45.6766 86.1241C43.0757 86.1241 41.6127 84.8241 41.6127 82.7116C41.6127 79.7866 44.3762 79.2991 46.6518 79.1366C48.765 78.8116 49.4153 78.6491 49.4153 77.8366C49.4153 76.8616 48.765 76.3741 47.3021 76.3741C45.8391 76.3741 45.1889 76.8616 45.0263 78.1616H42.1004C42.263 75.5616 44.0511 74.2616 47.4646 74.2616C49.7403 74.2616 52.5037 74.7491 52.5037 77.9991V82.8741C52.5037 83.8491 52.5037 84.9866 52.8287 85.9616H49.5777V85.7991ZM47.1395 80.9241C46.0017 81.0866 44.8638 81.2491 44.8638 82.7116C44.8638 83.6866 45.514 84.1741 46.6518 84.1741C48.2773 84.1741 49.4153 83.1991 49.4153 81.5741V80.2741C48.6025 80.7616 47.9522 80.7616 47.1395 80.9241ZM60.1435 86.1241C56.5674 86.1241 54.2918 83.8491 54.2918 80.2741C54.2918 76.5366 56.5674 74.0991 60.1435 74.0991C63.232 74.0991 65.1826 75.7241 65.5077 78.4866H62.4193C62.2567 77.1866 61.2813 76.3741 60.1435 76.3741C58.3555 76.3741 57.3802 77.6741 57.3802 80.1116C57.3802 82.3866 58.3555 83.6866 59.981 83.6866C61.2813 83.6866 62.2567 82.8741 62.4193 81.4116H65.5077C65.1826 84.3366 63.0694 86.1241 60.1435 86.1241ZM72.6599 76.8616V85.7991H69.5714V76.8616H65.8327V74.4241H76.3986V76.8616H72.6599ZM85.1762 85.7991V81.0866H80.7874V85.7991H77.6989V74.4241H80.7874V78.4866H85.1762V74.4241H88.4272V85.7991H85.1762ZM98.3428 85.7991V78.1616L94.2791 85.7991H90.703V74.4241H93.6288V82.0616L97.6927 74.4241H101.269V85.7991H98.3428ZM111.509 85.7991L108.096 80.9241L106.795 82.3866V85.7991H103.707V74.4241H106.795V78.9741L110.859 74.4241H114.598L110.209 78.8116L115.248 85.7991H111.509Z" fill="black"/>
</svg>
