<svg width="100" height="38" viewBox="0 0 100 38" fill="none" xmlns="http://www.w3.org/2000/svg">
<path d="M35.105 37.5C33.6504 37.5 32.3393 37.1987 31.1716 36.5962C30.004 35.9936 29.0899 35.1635 28.4293 34.1058C27.7688 33.0481 27.4385 31.859 27.4385 30.5386C27.4385 29.2181 27.7688 28.029 28.4293 26.9713C29.0899 25.9136 30.004 25.0835 31.1716 24.481C32.3393 23.8784 33.6504 23.5771 35.105 23.5771C36.5595 23.5771 37.8673 23.8784 39.0283 24.481C40.1893 25.0835 41.1034 25.9136 41.7706 26.9713C42.4379 28.029 42.7715 29.2181 42.7715 30.5386C42.7715 31.859 42.4379 33.0481 41.7706 34.1058C41.1034 35.1635 40.1893 35.9936 39.0283 36.5962C37.8673 37.1987 36.5595 37.5 35.105 37.5ZM35.105 34.8462C35.9324 34.8462 36.6796 34.6635 37.3469 34.2981C38.0142 33.9327 38.5379 33.4231 38.9182 32.7693C39.2985 32.1155 39.4887 31.3719 39.4887 30.5386C39.4887 29.7052 39.2985 28.9617 38.9182 28.3078C38.5379 27.654 38.0142 27.1444 37.3469 26.779C36.6796 26.4136 35.9324 26.2309 35.105 26.2309C34.2776 26.2309 33.5303 26.4136 32.8631 26.779C32.1958 27.1444 31.6721 27.654 31.2918 28.3078C30.9114 28.9617 30.7213 29.7052 30.7213 30.5386C30.7213 31.3719 30.9114 32.1155 31.2918 32.7693C31.6721 33.4231 32.1958 33.9327 32.8631 34.2981C33.5303 34.6635 34.2776 34.8462 35.105 34.8462ZM49.8175 37.5C48.7099 37.5 47.6389 37.3558 46.6048 37.0673C45.5706 36.7789 44.7399 36.4039 44.1126 35.9423L45.2136 33.5962C45.8141 34.0193 46.528 34.359 47.3554 34.6154C48.1828 34.8719 49.0101 35 49.8375 35C50.7583 35 51.4389 34.8686 51.8792 34.6058C52.3196 34.343 52.5398 33.9936 52.5398 33.5577C52.5398 33.2373 52.4097 32.9712 52.1495 32.7597C51.8892 32.5481 51.5557 32.3783 51.1486 32.2501C50.7416 32.1219 50.1911 31.9808 49.4972 31.827C48.4296 31.5834 47.5556 31.3398 46.875 31.0962C46.1944 30.8527 45.6106 30.4616 45.1235 29.9232C44.6364 29.3847 44.3929 28.6668 44.3929 27.7694C44.3929 26.9873 44.6131 26.279 45.0534 25.6444C45.4938 25.0098 46.1577 24.5066 47.0451 24.1348C47.9326 23.763 49.0168 23.5771 50.2979 23.5771C51.192 23.5771 52.0661 23.6797 52.9201 23.8848C53.7742 24.0899 54.5215 24.3848 55.162 24.7694L54.1612 27.1348C52.8668 26.4297 51.5723 26.0771 50.2779 26.0771C49.3704 26.0771 48.6998 26.2181 48.2662 26.5002C47.8325 26.7822 47.6156 27.154 47.6156 27.6155C47.6156 28.0771 47.8658 28.42 48.3662 28.6444C48.8667 28.8687 49.6306 29.0898 50.6582 29.3078C51.7258 29.5514 52.5998 29.795 53.2804 30.0386C53.961 30.2821 54.5448 30.6667 55.0319 31.1924C55.519 31.7181 55.7625 32.4296 55.7625 33.327C55.7625 34.0962 55.539 34.7981 55.092 35.4327C54.6449 36.0673 53.9743 36.5705 53.0803 36.9423C52.1862 37.3141 51.0986 37.5 49.8175 37.5ZM70.8353 23.8079V37.2692H67.5926V31.7501H61.2272V37.2692H57.9844V23.8079H61.2272V29.1155H67.5926V23.8079H70.8353ZM85.0074 34.7693V37.2692H74.1582V23.8079H84.7472V26.3078H77.3809V29.2309H83.8864V31.6539H77.3809V34.7693H85.0074ZM96.5172 37.2692L93.8148 33.5193H93.6547H90.8323V37.2692H87.5896V23.8079H93.6547C94.8958 23.8079 95.9734 24.0066 96.8875 24.404C97.8016 24.8014 98.5055 25.3655 98.9993 26.0963C99.493 26.8271 99.7399 27.6924 99.7399 28.6924C99.7399 29.6924 99.4897 30.5546 98.9893 31.2789C98.4888 32.0033 97.7782 32.5578 96.8574 32.9424L100 37.2692H96.5172ZM96.4571 28.6924C96.4571 27.936 96.2036 27.3559 95.6964 26.9521C95.1893 26.5482 94.4487 26.3463 93.4746 26.3463H90.8323V31.0385H93.4746C94.4487 31.0385 95.1893 30.8334 95.6964 30.4232C96.2036 30.0129 96.4571 29.436 96.4571 28.6924Z" fill="#323232"/>
<path fill-rule="evenodd" clip-rule="evenodd" d="M34.9441 9.62955H34.9442C35.9534 9.62955 36.779 10.3195 36.779 11.1629V16.0574C36.779 16.9008 35.9534 17.5907 34.9442 17.5907H34.9441C33.935 17.5907 33.1094 16.9008 33.1094 16.0574V11.1629C33.1094 10.3195 33.935 9.62955 34.9441 9.62955Z" fill="#323232"/>
<path fill-rule="evenodd" clip-rule="evenodd" d="M21.7003 15.0593H21.7004C22.7095 15.0593 23.5351 15.8895 23.5351 16.9042V18.2771C23.5351 19.2919 22.7095 20.122 21.7004 20.122H21.7003C20.6911 20.122 19.8655 19.2919 19.8655 18.2771V16.9042C19.8655 15.8895 20.6911 15.0593 21.7003 15.0593Z" fill="#323232"/>
<path fill-rule="evenodd" clip-rule="evenodd" d="M28.3224 8.88718H28.3224C29.3315 8.88718 30.1571 9.61255 30.1571 10.4991V18.8293C30.1571 19.7159 29.3315 20.4413 28.3224 20.4413H28.3224C27.3132 20.4413 26.4875 19.7159 26.4875 18.8293V10.4991C26.4875 9.61255 27.3132 8.88718 28.3224 8.88718Z" fill="#323232"/>
<path fill-rule="evenodd" clip-rule="evenodd" d="M54.8097 14.6649H54.8097C55.8188 14.6649 56.6445 15.495 56.6445 16.5097V17.9299C56.6445 18.9446 55.8188 19.7748 54.8097 19.7748H54.8097C53.8005 19.7748 52.9749 18.9446 52.9749 17.9299V16.5097C52.9749 15.495 53.8005 14.6649 54.8097 14.6649Z" fill="#323232"/>
<path fill-rule="evenodd" clip-rule="evenodd" d="M48.1874 15.7041H48.1876C49.1966 15.7041 50.0222 16.5342 50.0222 17.5489V17.9491C50.0222 18.9637 49.1966 19.7938 48.1876 19.7938H48.1874C47.1783 19.7938 46.3528 18.9637 46.3528 17.9491V17.5489C46.3528 16.5342 47.1783 15.7041 48.1874 15.7041Z" fill="#323232"/>
<path fill-rule="evenodd" clip-rule="evenodd" d="M47.8681 10.3764H48.5069C49.3403 10.3764 50.0222 11.1505 50.0222 12.0967V12.0968C50.0222 13.043 49.3403 13.8172 48.5069 13.8172H47.8681C47.0347 13.8172 46.3528 13.043 46.3528 12.0968V12.0967C46.3528 11.1505 47.0347 10.3764 47.8681 10.3764Z" fill="#323232"/>
<path fill-rule="evenodd" clip-rule="evenodd" d="M87.9188 18.3112H87.9188C86.9097 18.3112 86.0841 17.481 86.0841 16.4663V13.8386C86.0841 12.8239 86.9097 11.9937 87.9188 11.9937H87.9188C88.928 11.9937 89.7537 12.8239 89.7537 13.8386V16.4663C89.7537 17.481 88.928 18.3112 87.9188 18.3112Z" fill="#323232"/>
<path fill-rule="evenodd" clip-rule="evenodd" d="M94.6696 19.6292H94.4117C93.4734 19.6292 92.7059 18.8574 92.7059 17.9141V17.9139C92.7059 16.9706 93.4734 16.1988 94.4117 16.1988H94.6696C95.6078 16.1988 96.3755 16.9706 96.3755 17.9139V17.9141C96.3755 18.8574 95.6078 19.6292 94.6696 19.6292Z" fill="#323232"/>
<path fill-rule="evenodd" clip-rule="evenodd" d="M68.0533 17.9907H68.0532C67.0441 17.9907 66.2185 17.1606 66.2185 16.1459V14.3331C66.2185 13.3184 67.0441 12.4883 68.0532 12.4883H68.0533C69.0624 12.4883 69.8879 13.3184 69.8879 14.3331V16.1459C69.8879 17.1606 69.0624 17.9907 68.0533 17.9907Z" fill="#323232"/>
<path fill-rule="evenodd" clip-rule="evenodd" d="M61.5717 19.7747H61.2914C60.3593 19.7747 59.5968 19.008 59.5968 18.0707V18.0706C59.5968 17.1334 60.3593 16.3666 61.2914 16.3666H61.5717C62.5037 16.3666 63.2664 17.1334 63.2664 18.0706V18.0707C63.2664 19.008 62.5037 19.7747 61.5717 19.7747Z" fill="#323232"/>
<path fill-rule="evenodd" clip-rule="evenodd" d="M81.3288 18.8426H81.2648C80.2732 18.8426 79.462 18.0269 79.462 17.0299C79.462 16.0329 80.2732 15.2172 81.2648 15.2172H81.3288C82.3203 15.2172 83.1316 16.0329 83.1316 17.0299C83.1316 18.0269 82.3203 18.8426 81.3288 18.8426Z" fill="#323232"/>
<path fill-rule="evenodd" clip-rule="evenodd" d="M81.2968 12.7974H81.2967C80.2876 12.7974 79.462 11.9672 79.462 10.9525V8.5186C79.462 7.50389 80.2876 6.67373 81.2967 6.67373H81.2968C82.306 6.67373 83.1316 7.50389 83.1316 8.5186V10.9525C83.1316 11.9672 82.306 12.7974 81.2968 12.7974Z" fill="#323232"/>
<path fill-rule="evenodd" clip-rule="evenodd" d="M74.675 19.4031H74.6749C73.6658 19.4031 72.8402 18.5729 72.8402 17.5582V15.0905C72.8402 14.0758 73.6658 13.2457 74.6749 13.2457H74.675C75.6842 13.2457 76.5098 14.0758 76.5098 15.0905V17.5582C76.5098 18.5729 75.6842 19.4031 74.675 19.4031Z" fill="#323232"/>
<path fill-rule="evenodd" clip-rule="evenodd" d="M74.7229 10.8H74.6271C73.6443 10.8 72.8402 9.99144 72.8402 9.00323V9.00317C72.8402 8.01496 73.6443 7.20643 74.6271 7.20643H74.7229C75.7057 7.20643 76.5098 8.01496 76.5098 9.00317V9.00323C76.5098 9.99144 75.7057 10.8 74.7229 10.8Z" fill="#323232"/>
<path fill-rule="evenodd" clip-rule="evenodd" d="M1.83483 21.0661H1.83489C2.84399 21.0661 3.6696 21.8962 3.6696 22.911V25.5387C3.6696 26.5534 2.84399 27.3835 1.83489 27.3835H1.83483C0.825613 27.3835 0 26.5534 0 25.5387V22.911C0 21.8962 0.825613 21.0661 1.83483 21.0661Z" fill="#323232"/>
<path fill-rule="evenodd" clip-rule="evenodd" d="M21.7006 24.2248H21.7007C22.7098 24.2248 23.5354 25.0549 23.5354 26.0695V27.8823C23.5354 28.897 22.7098 29.7271 21.7007 29.7271H21.7006C20.6915 29.7271 19.866 28.897 19.866 27.8823V26.0695C19.866 25.0549 20.6915 24.2248 21.7006 24.2248Z" fill="#323232"/>
<path fill-rule="evenodd" clip-rule="evenodd" d="M8.42488 25.331H8.48885C9.48042 25.331 10.2917 26.1467 10.2917 27.1437C10.2917 28.1408 9.48042 28.9565 8.48885 28.9565H8.42488C7.43332 28.9565 6.62207 28.1408 6.62207 27.1437C6.62207 26.1467 7.43332 25.331 8.42488 25.331Z" fill="#323232"/>
<path fill-rule="evenodd" clip-rule="evenodd" d="M8.4569 31.3762H8.45695C9.46605 31.3762 10.2917 32.2064 10.2917 33.2211V35.655C10.2917 36.6697 9.46605 37.4999 8.45695 37.4999H8.4569C7.44768 37.4999 6.62207 36.6697 6.62207 35.655V33.2211C6.62207 32.2064 7.44768 31.3762 8.4569 31.3762Z" fill="#323232"/>
<path fill-rule="evenodd" clip-rule="evenodd" d="M15.0787 22.8124H15.0787C16.0879 22.8124 16.9135 23.6425 16.9135 24.6572V27.1249C16.9135 28.1396 16.0879 28.9698 15.0787 28.9698H15.0787C14.0695 28.9698 13.2439 28.1396 13.2439 27.1249V24.6572C13.2439 23.6425 14.0695 22.8124 15.0787 22.8124Z" fill="#323232"/>
<path fill-rule="evenodd" clip-rule="evenodd" d="M15.0308 31.4155H15.1266C16.1094 31.4155 16.9135 32.224 16.9135 33.2122V33.2123C16.9135 34.2005 16.1094 35.009 15.1266 35.009H15.0308C14.0479 35.009 13.2439 34.2005 13.2439 33.2123V33.2122C13.2439 32.224 14.0479 31.4155 15.0308 31.4155Z" fill="#323232"/>
<path fill-rule="evenodd" clip-rule="evenodd" d="M43.9126 0.5C43.9145 0.540326 43.9155 0.581278 43.9155 0.621674V5.12849C43.4183 5.53258 43.2167 6.04834 43.2167 6.62688C43.2167 7.20542 43.4183 7.74573 43.9155 8.09316V18.7058C43.9155 20 42.9255 21.0594 41.7161 21.0594H41.716C40.5068 21.0594 39.5166 20.0003 39.5166 18.7058V8.10658C40.0228 7.7248 40.2665 7.18115 40.2665 6.58822C40.2665 5.99529 40.0304 5.45972 39.5166 5.08601V0.621674C39.5166 0.580861 39.5176 0.540326 39.5196 0.5H43.9126Z" fill="#323232"/>
</svg>
