<svg width="285" height="59" viewBox="0 0 285 59" fill="none" xmlns="http://www.w3.org/2000/svg">
<path d="M65.388 49.309L64.8632 50.4256L65.8575 51.156C68.4249 53.0421 71.7555 54.5259 75.7883 55.6488C79.8429 56.7779 84.0373 57.341 88.3669 57.341C93.3591 57.341 97.6885 56.6189 101.308 55.1162C104.893 53.6276 107.689 51.5677 109.583 48.8837C111.454 46.232 112.399 43.2746 112.399 40.0512C112.399 36.3765 111.393 33.2855 109.229 30.9539C107.217 28.7867 104.8 27.1978 101.996 26.196C99.3399 25.247 95.9644 24.3098 91.8863 23.381L91.8751 23.3784L91.8639 23.376C87.9973 22.5572 85.2274 21.7463 83.4794 20.964C82.7012 20.6157 82.2256 20.2234 81.9441 19.8382C81.6741 19.4688 81.5218 19.0243 81.5218 18.4402C81.5218 17.271 82.0252 16.3084 83.3042 15.478C84.5825 14.6481 86.7706 14.1191 90.1117 14.1191C94.7343 14.1191 99.3961 15.3738 104.113 17.9389L105.565 18.7288L106.21 17.2065L110.004 8.25649L110.513 7.05535L109.394 6.38461C106.815 4.83846 103.835 3.6709 100.476 2.86535C97.1222 2.06134 93.6918 1.65979 90.1876 1.65979C85.196 1.65979 80.8775 2.3817 77.2808 3.88614C73.7189 5.37605 70.9474 7.43842 69.0795 10.1258C67.2336 12.7815 66.3076 15.7612 66.3076 19.0224C66.3076 22.6987 67.3137 25.8048 69.4651 28.1792C71.4764 30.3988 73.8972 32.0181 76.7101 33.0231C79.3663 33.9721 82.7418 34.9093 86.8199 35.8382L86.8289 35.8402C89.4401 36.4182 91.4788 36.9411 92.962 37.4074C94.3713 37.8504 95.4544 38.4157 96.2598 39.0693C96.9143 39.6005 97.1844 40.1878 97.1844 40.9244C97.1844 41.9428 96.7234 42.8208 95.4132 43.6014C94.0958 44.3862 91.8473 44.8817 88.4427 44.8817C85.4641 44.8817 82.4779 44.4214 79.4789 43.4934C76.4667 42.5614 73.9081 41.3391 71.781 39.843L70.3202 38.8155L69.5605 40.4318L65.388 49.309ZM169.524 4.03295V2.53295H168.024H155.734H154.234V4.03295V22.6158H133.11V4.03295V2.53295H131.61H119.32H117.82V4.03295V54.9678V56.4678H119.32H131.61H133.11V54.9678V35.5845H154.234V54.9678V56.4678H155.734H168.024H169.524V54.9678V4.03295ZM223.236 45.5085V44.0085H221.736H194.332V35.2207H217.488H218.988V33.7207V24.5524V23.0524H217.488H194.332V14.9923H220.75H222.25V13.4923V4.03295V2.53295H220.75H180.618H179.118V4.03295V54.9678V56.4678H180.618H221.736H223.236V54.9678V45.5085ZM264.142 55.8457L264.591 56.4678H265.358H278.559H281.505L279.772 54.0854L268.934 39.1889C271.853 37.6925 274.21 35.6861 275.961 33.1554C278.054 30.1309 279.073 26.561 279.073 22.515C279.073 18.4729 278.069 14.8965 276.008 11.8512L274.766 12.6919L276.008 11.8512C273.957 8.82009 271.05 6.51455 267.359 4.91267C263.666 3.30972 259.37 2.53295 254.51 2.53295H231.523H230.023V4.03295V54.9678V56.4678H231.523H243.813H245.313V54.9678V42.2788H254.349L264.142 55.8457ZM17.0122 53.7545C21.6723 56.1554 26.8809 57.341 32.6066 57.341C38.332 57.341 43.5296 56.1554 48.1661 53.7529C52.791 51.3564 56.4596 48.0372 59.1374 43.7994C61.8265 39.544 63.1626 34.7639 63.1626 29.5004C63.1626 24.2369 61.8265 19.4568 59.1374 15.2014C56.4596 10.9636 52.791 7.64439 48.1661 5.24788C43.5296 2.84537 38.332 1.65979 32.6066 1.65979C26.8809 1.65979 21.6723 2.84542 17.0122 5.24627C12.3607 7.64277 8.68858 10.9638 6.03413 15.2071C3.37254 19.4618 2.05054 24.2399 2.05054 29.5004C2.05054 34.7609 3.37254 39.5389 6.03413 43.7936C8.68858 48.0369 12.3607 51.358 17.0122 53.7545ZM40.3839 42.4096C38.0947 43.6611 35.5136 44.2996 32.6066 44.2996C29.6995 44.2996 27.1185 43.6611 24.8293 42.4096C22.5384 41.1572 20.7535 39.4223 19.4505 37.1859C18.1559 34.9639 17.4923 32.4159 17.4923 29.5004C17.4923 26.5849 18.1559 24.0369 19.4505 21.8149C20.7535 19.5785 22.5384 17.8436 24.8293 16.5912C27.1185 15.3397 29.6995 14.7012 32.6066 14.7012C35.5136 14.7012 38.0947 15.3397 40.3839 16.5912C42.6747 17.8436 44.4597 19.5785 45.7627 21.8149C47.0573 24.0369 47.7209 26.5849 47.7209 29.5004C47.7209 32.4159 47.0573 34.9639 45.7627 37.1859C44.4597 39.4223 42.6747 41.1572 40.3839 42.4096ZM261.314 17.104C262.817 18.2985 263.631 20.0251 263.631 22.515C263.631 24.9463 262.823 26.6711 261.305 27.8969C259.754 29.1498 257.339 29.8923 253.827 29.8923H245.313V15.1378H253.827C257.343 15.1378 259.762 15.87 261.314 17.104Z" fill="#3FBAFF" stroke="#F4F4F4" stroke-width="3"/>
</svg>
