<svg width="1049" height="1050" viewBox="0 0 1049 1050" fill="none" xmlns="http://www.w3.org/2000/svg">
<path opacity="0.23" d="M547.306 46.0867C564.134 51.0994 581.077 56.1935 598.1 61.0922C615.091 64.9169 632.082 68.3021 648.894 71.2478C665.544 72.973 681.803 74.3726 697.459 75.577C712.644 75.9513 726.868 76.5047 739.839 77.4323C757.205 78.9459 781.438 87.2136 787.867 94.7652C791.512 104.823 794.36 132.963 797.257 150.702C802.075 163.56 809.301 177.377 819.619 191.96C833.713 206.965 851.193 222.557 871.829 238.571C894.972 254.781 919.466 271.284 943.863 287.966C966.713 304.68 986.259 321.476 1000.81 338.321C1009.74 355.116 1011.88 371.928 1006.99 388.708C996.854 405.439 981.881 422.169 964.092 438.868C946.987 455.533 932.014 472.215 921.533 488.864C918.132 505.514 921.794 522.147 932.421 538.731C949.412 555.299 969.431 571.427 989.644 587.019C1008.34 602.594 1021.98 617.583 1028.83 631.922C1028.85 646.146 1021.05 659.638 1006.36 672.3C986.666 684.783 963.36 696.338 938.622 706.9C914.6 717.219 892.808 726.496 874.515 734.714C851.29 755.416 856.824 780.057 860.876 787.95C861.837 794.313 859.998 801.279 855.196 809.091C848.198 818.498 838.287 829.126 825.804 841.055C811.514 854.726 795.337 869.667 777.809 885.698C759.304 902.884 740.148 920.575 720.7 938.266C701.007 955.81 681.428 972.297 662.224 987.042C643.084 999.997 624.417 1010.17 606.319 1016.99C588.351 1020.89 570.921 1021.01 554.028 1017.25C537.215 1010.74 520.892 1000.94 505.056 988.377C489.22 974.706 474.199 960.107 459.974 945.411C445.685 931.935 432.128 919.696 419.303 909.182C406.364 901.305 394.093 895.593 382.408 892.029C370.511 891.117 359.086 891.882 348.035 893.868C336.561 897.481 325.234 901.37 313.955 905.016C301.977 908.89 289.819 911.607 277.352 912.828C264.072 913.137 250.369 911.445 236.307 907.669C221.562 902.493 206.621 895.153 191.697 885.828C176.692 875.168 162.158 862.782 148.454 848.916C135.5 834.106 123.896 818.189 113.935 801.475C105.244 784.239 98.36 766.516 93.2985 748.516C89.2135 730.369 86.5281 712.141 84.9006 693.994C83.2243 675.88 81.7921 657.929 80.2948 640.222C77.6257 622.612 74.3544 605.247 70.4484 588.174C65.2079 571.183 59.6581 554.453 54.1409 538.015C48.4121 521.61 43.6923 505.465 40.4861 489.613C38.4843 473.761 38.7122 458.544 41.1534 443.978C44.9618 429.379 50.5929 415.415 57.6074 402.086C64.8824 388.724 72.6455 375.997 80.425 363.889C87.2117 351.715 93.4613 340.127 99.0436 329.109C103.275 317.961 107.051 307.3 110.583 297.08C113.48 286.615 116.816 276.459 120.95 266.564C125.507 256.229 131.447 246.009 138.917 235.804C147.478 224.998 157.715 214.094 169.514 203.027C182.372 191.276 196.498 179.314 211.65 167.173C227.372 154.446 243.712 141.637 260.378 128.878C277.092 115.858 293.839 103.147 310.521 90.9731C326.894 79.0436 343.103 68.0417 359.118 58.1953C374.758 49.1627 390.268 41.6273 405.746 35.7846C420.898 31.0974 436.148 28.233 451.56 27.2402C466.793 27.2891 482.336 28.9979 498.269 32.2367C514.121 35.9148 530.461 40.6183 547.29 46.0867" stroke="url(#paint0_linear_336_6909)" stroke-width="2" stroke-linecap="round" stroke-dasharray="2 9"/>
<path opacity="0.91" d="M582.383 67.8643C598.267 73.9787 613.998 80.1639 629.531 86.1719C645.085 91.1699 660.359 95.7565 675.208 99.8889C689.926 102.87 704.003 105.463 717.219 107.767C730.055 109.212 741.732 110.673 752.025 112.314C774.597 118.672 791.086 138.404 793.007 149.781C795.305 158.59 798.377 168.695 802.927 180.029C810.11 192.218 819.758 205.544 832.253 219.903C847.896 234.974 866.221 250.871 886.734 267.444C908.673 284.379 930.927 301.712 952.092 319.212C970.993 336.667 986.115 354.018 996.103 371.072C1000.78 387.766 999.206 404.069 991.48 419.904C979.419 435.433 963.496 450.656 945.533 465.67C928.755 480.768 914.27 495.963 904.111 511.365C900.477 527.245 903.246 543.478 912.308 560.01C927.151 576.933 944.808 593.517 962.847 609.54C979.786 625.437 992.451 640.395 999.239 654.237C999.994 667.571 993.645 679.621 980.812 690.38C962.988 700.64 941.249 709.742 917.465 717.77C893.482 725.621 870.749 732.63 850.58 738.906C827.741 748.339 807.175 765.551 806.602 773.897C810.147 783.3 814.327 804.74 811.079 817.694C806.423 827.938 799.093 839.085 789.247 851.214C777.643 864.671 763.903 879.02 748.468 894.034C731.853 909.828 714.153 925.742 695.79 941.332C676.933 956.528 657.917 970.505 639.045 982.665C620.168 993.063 601.711 1000.75 583.848 1005.33C566.225 1007.22 549.253 1005.64 533.019 1000.56C516.993 993.003 501.65 982.473 486.973 969.428C472.367 955.393 458.621 940.489 445.665 925.493C432.557 911.499 420.057 898.591 408.12 887.192C395.855 878.119 383.992 870.983 372.463 865.813C360.468 863.089 348.686 861.964 337.011 862.102C324.749 863.846 312.456 866.029 300.065 868.205C287.011 870.774 273.739 872.496 260.241 873.028C246.118 872.944 231.821 871.151 217.394 867.521C202.688 862.747 188.135 856.041 173.974 847.487C160.123 837.763 147.124 826.387 135.268 813.607C124.402 799.966 115.099 785.229 107.535 769.668C101.244 753.626 96.7041 737.055 93.8672 720.164C91.8279 703.068 90.9723 685.844 90.9667 668.598C90.6885 651.284 90.5055 634.009 90.0675 616.879C88.3933 599.695 86.0722 582.661 83.0521 565.822C78.7785 548.943 74.1955 532.288 69.6718 515.946C64.9696 499.592 61.2695 483.603 59.0424 468.011C58.0166 452.504 59.1377 437.785 62.4047 423.87C67.0527 410.037 73.4929 396.933 81.3169 384.564C89.519 372.156 98.2317 360.372 107.034 349.165C114.983 337.8 122.407 326.936 129.149 316.497C134.555 305.784 139.38 295.454 143.808 285.423C147.412 275.056 151.211 264.931 155.501 255.005C159.986 244.635 165.588 234.393 172.49 224.226C180.325 213.538 189.728 202.847 200.667 192.117C212.702 180.877 226.113 169.555 240.701 158.218C256.067 146.479 272.261 134.799 289.012 123.321C306.081 111.735 323.379 100.59 340.73 90.0845C357.993 79.9155 375.137 70.7171 392.085 62.6958C408.762 55.4875 425.189 49.7625 441.418 45.6715C457.343 42.6521 473.113 41.3675 488.807 41.8559C504.287 43.2919 519.787 46.2793 535.349 50.723C550.835 55.5367 566.513 61.3266 582.367 67.8631" stroke="url(#paint1_linear_336_6909)" stroke-width="2" stroke-linecap="round" stroke-dasharray="1 7"/>
<path opacity="0.19" d="M608.622 91.3942C623.368 98.4519 637.697 105.549 651.575 112.467C665.54 118.428 678.986 123.986 691.797 129.043C704.551 132.991 716.511 136.513 727.477 139.631C742.951 142.946 766.852 148.854 774.941 152.435C781.29 156.805 789.595 170.905 793.63 181.275C797.842 189.467 803.179 199.003 810.183 209.876C819.662 221.726 831.371 234.895 845.458 249.256C861.923 264.465 880.256 280.646 899.814 297.575C919.81 314.896 939.195 332.574 956.701 350.297C971.474 367.814 982.19 384.968 987.876 401.539C988.686 417.484 983.893 432.716 973.834 447.184C960.336 461.212 943.831 474.765 926.014 488.066C909.712 501.581 895.806 515.355 885.998 529.562C882.165 544.634 884.089 560.376 891.636 576.685C904.388 593.734 919.769 610.564 935.676 626.811C950.844 642.937 962.464 657.885 969.079 671.383C970.451 684.071 965.484 695.086 954.523 704.445C938.757 713.023 918.933 720.203 896.582 726.186C873.308 731.956 850.421 736.975 829.185 741.473C810.634 746.4 795.265 751.139 783.303 755.852C772.35 764.226 766.231 783.477 766.701 794.755C767.328 803.54 766.728 812.857 764.447 822.791C761.046 833.897 755.398 845.654 747.503 858.078C738.104 871.489 726.582 885.371 713.261 899.54C698.767 914.101 682.958 928.426 666.205 942.108C648.915 955.171 631.198 966.842 613.419 976.63C595.628 984.658 578.136 990.114 561.159 992.636C544.479 992.717 528.464 989.621 513.228 983.349C498.336 974.89 484.139 963.735 470.656 950.33C457.287 936.005 444.737 920.892 432.861 905.661C420.815 891.277 409.203 877.777 397.931 865.59C386.209 855.411 374.652 846.965 363.161 840.254C351.043 835.756 338.879 832.747 326.607 830.955C313.654 830.727 300.525 831.033 287.213 831.478C273.278 832.491 259.18 832.906 244.947 832.431C230.303 831.601 215.693 829.379 201.267 825.622C186.864 821.012 172.964 814.716 159.815 806.833C147.295 797.987 135.921 787.676 125.974 776.106C117.151 763.806 110.018 750.482 104.67 736.391C100.538 721.848 98.0755 706.77 97.1597 691.336C96.8399 675.642 97.505 659.725 98.8098 643.703C99.684 627.471 100.471 611.161 100.928 594.853C100.101 578.331 98.5978 561.827 96.4084 545.407C93.0404 528.835 89.3849 512.437 85.8239 496.299C82.1479 480.161 79.4367 464.406 78.1666 449.152C78.0729 434.065 80.0214 419.876 84.0101 406.601C89.4051 393.493 96.5226 381.222 105.026 369.722C113.99 358.222 123.556 347.35 133.246 336.989C142.24 326.43 150.773 316.234 158.666 306.373C165.299 296.121 171.259 286.101 176.698 276.271C181.214 265.997 185.693 255.866 190.414 245.884C195.085 235.451 200.579 225.119 207.143 214.89C214.423 204.252 223.105 193.698 233.191 183.212C244.312 172.38 256.83 161.665 270.564 151.072C285.182 140.276 300.782 129.735 317.073 119.538C333.878 109.431 351.063 99.8869 368.455 91.0794C385.931 82.7276 403.362 75.3886 420.605 69.2557C437.699 63.9401 454.509 60.0472 470.98 57.7335C487.21 56.4211 503.112 56.7226 518.698 58.6722C534.099 61.4668 549.279 65.6931 564.238 71.2523C579.132 77.1475 593.919 83.9152 608.608 91.3758" stroke="url(#paint2_linear_336_6909)" stroke-width="2" stroke-linecap="round" stroke-dasharray="1 7"/>
<path opacity="0.76" d="M626.352 115.157C639.778 123.018 652.612 130.851 664.813 138.448C677.135 145.172 688.803 151.457 699.718 157.213C710.674 161.93 720.775 166.13 729.89 169.885C742.902 174.094 763.114 181.131 770.364 184.885C776.888 189.233 788.459 202.787 795.43 212.807C801.838 220.792 809.507 230.195 818.777 240.975C830.149 252.822 843.344 266.026 858.295 280.507C874.834 295.81 892.358 312.108 910.221 329.078C927.687 346.345 943.777 363.816 957.437 381.132C968.086 398.051 974.639 414.356 976.428 429.821C973.865 444.469 966.441 458.189 954.57 470.987C940.128 483.284 923.442 495.098 906.028 506.656C890.37 518.641 877.136 531.047 867.723 544.107C863.72 558.329 864.843 573.485 870.954 589.445C881.708 606.42 894.898 623.285 908.703 639.616C922.114 655.846 932.625 670.771 938.923 684.076C940.78 696.36 937.039 706.726 927.886 715.164C914.208 722.581 896.48 728.395 875.93 732.854C853.896 737.012 831.494 740.407 809.915 743.381C790.071 746.876 772.63 750.422 757.979 754.233C742.046 761.765 725.952 781.364 722.625 793.6C721.424 803.146 719.71 813.299 716.957 824.027C713.665 835.788 708.688 848.036 701.88 860.673C693.969 874.022 684.164 887.514 672.649 900.905C660.146 914.4 646.282 927.336 631.403 939.339C616.008 950.565 600.051 960.222 583.88 967.935C567.742 973.941 551.757 977.45 536.162 978.213C520.947 976.743 506.319 972.386 492.395 965.135C478.885 955.958 466.016 944.339 453.773 930.657C441.717 916.182 430.342 900.939 419.486 885.524C408.426 870.831 397.646 856.847 386.969 843.934C375.785 832.76 364.52 823.05 353.093 814.869C340.981 808.64 328.614 803.753 315.953 800.002C302.607 797.735 288.984 796.058 275.134 794.666C260.745 793.923 246.23 792.836 231.73 791.137C217.04 789.315 202.575 786.442 188.569 782.368C174.847 777.74 161.937 771.739 150.054 764.443C139.001 756.459 129.328 747.241 121.254 736.934C114.363 726.083 109.211 714.34 105.84 701.897C103.535 689.067 102.792 675.707 103.417 661.942C104.456 647.883 106.261 633.506 108.537 618.88C110.245 603.949 111.787 588.782 112.882 573.453C112.736 557.775 111.919 541.969 110.461 526.125C107.937 510.052 105.166 494.043 102.513 478.259C99.8246 462.483 98.0694 447.092 97.7111 432.25C98.5019 417.638 101.21 404.02 105.854 391.385C111.874 379.011 119.566 367.529 128.617 356.855C138.241 346.221 148.483 336.202 158.97 326.669C168.924 316.904 178.503 307.409 187.502 298.139C195.339 288.386 202.517 278.758 209.101 269.185C214.699 259.085 220.07 249.036 225.478 239.044C230.602 228.592 236.306 218.231 242.787 207.971C249.743 197.363 257.877 186.925 267.222 176.664C277.46 166.195 289.01 155.974 301.736 146.089C315.338 136.159 329.945 126.662 345.372 117.69C361.36 108.972 377.865 100.947 394.651 93.7819C411.67 87.1659 428.708 81.6195 445.617 77.2938C462.466 73.7877 479.015 71.6819 495.179 71.0582C511.145 71.3573 526.704 73.167 541.775 76.4701C556.682 80.5369 571.19 85.9165 585.264 92.4678C599.296 99.293 612.988 106.927 626.336 115.154" stroke="url(#paint3_linear_336_6909)" stroke-width="2" stroke-linecap="round"/>
<path opacity="0.68" d="M636.966 138.062C648.988 146.511 660.302 154.89 670.9 162.993C681.677 170.301 691.725 177.144 701.034 183.434C714.81 191.153 738.311 202.911 747.934 207.479C756.962 211.349 772.302 220.453 779.669 226.723C785.481 231.694 791.733 237.776 798.75 245.079C807.266 253.29 816.955 262.893 827.997 273.904C840.65 285.907 854.604 299.27 869.624 313.806C885.45 329.067 901.49 345.169 917.057 361.795C931.597 378.514 944.21 395.216 954.048 411.554C960.796 427.269 963.597 442.162 962.001 456.034C956.674 468.978 947.211 480.876 934.135 491.795C919.191 502.257 902.675 512.298 885.912 522.199C871.057 532.704 858.575 543.795 849.588 555.746C845.458 569.121 845.833 583.616 850.59 599.126C859.459 615.828 870.558 632.549 882.341 648.841C893.977 665.056 903.299 679.958 909.16 693.179C911.279 705.281 908.577 715.308 901.053 723.261C889.376 729.993 873.787 734.965 855.239 738.452C834.797 741.459 813.386 743.659 792.081 745.432C771.655 747.681 752.854 750.112 736.155 752.949C721.866 756.942 709.964 761.643 700.268 767.153C692.851 774.036 686.956 781.748 682.051 790.257C678.283 800.043 674.562 810.487 670.4 821.515C666.226 833.522 660.933 845.883 654.309 858.451C647.041 871.544 638.25 884.518 628.037 897.131C617.13 909.627 604.985 921.307 591.868 931.841C578.421 941.466 564.372 949.426 550.022 955.383C535.798 959.734 521.633 961.662 507.751 960.977C494.309 958.302 481.339 952.951 468.943 944.971C457.006 935.293 445.598 923.379 434.706 909.565C424.024 895.032 413.842 879.763 404.028 864.278C394.003 849.343 384.042 834.951 374.037 821.411C363.472 809.335 352.653 798.49 341.518 788.909C329.647 781.047 317.397 774.38 304.749 768.732C291.441 764.486 277.802 760.856 263.945 757.569C249.66 755.057 235.329 752.412 221.142 749.386C206.926 746.52 193.148 742.9 180.027 738.42C167.373 733.669 155.741 727.909 145.346 721.153C135.883 713.988 127.937 705.857 121.662 696.871C116.526 687.52 113.101 677.412 111.377 666.695C110.558 655.664 111.133 644.088 112.897 632.094C114.88 619.757 117.458 606.999 120.362 593.878C122.61 580.33 124.596 566.401 126.147 552.16C126.491 537.467 126.205 522.49 125.376 507.338C123.583 491.891 121.625 476.429 119.858 461.124C118.091 445.82 117.241 430.917 117.742 416.557C119.337 402.515 122.739 389.488 127.96 377.496C134.522 365.842 142.693 355.128 152.184 345.238C162.335 335.471 173.167 326.274 184.301 317.554C195.086 308.581 205.617 299.839 215.657 291.21C224.71 282.073 233.103 272.932 240.881 263.749C247.674 253.991 254.129 244.17 260.434 234.339C266.287 224.022 272.451 213.743 279.145 203.568C286.058 193.1 293.865 182.823 302.677 172.821C312.16 162.725 322.776 152.99 334.455 143.734C346.897 134.597 360.32 126.05 374.532 118.171C389.31 110.677 404.657 104.025 420.352 98.3388C436.309 93.2702 452.377 89.3355 468.344 86.6254C484.309 84.7448 500.018 84.2134 515.319 85.0889C530.485 86.8403 545.17 89.9603 559.323 94.4509C573.311 99.6227 586.795 105.953 599.722 113.325C612.613 120.941 625.032 129.25 636.955 138.042" stroke="url(#paint4_linear_336_6909)" stroke-width="2" stroke-linecap="round" stroke-dasharray="5 2"/>
<path opacity="0.37" d="M642.641 159.58C653.226 168.469 663.074 177.242 672.226 185.691C681.595 193.456 690.309 200.737 698.355 207.478C710.465 216.044 731.826 229.626 741.197 235.172C750.638 240.102 768.902 251.262 778.683 258.519C786.239 264.143 794.384 270.851 803.321 278.752C813.494 287.49 824.635 297.554 836.771 308.922C849.978 321.151 863.889 334.576 878.221 349.023C892.668 363.963 906.647 379.511 919.546 395.356C930.978 411.042 940.11 426.472 946.321 441.312C949.57 455.34 949.131 468.411 944.784 480.32C937.336 491.28 926.444 501.18 912.682 510.163C897.716 518.79 881.703 527.102 865.809 535.422C851.878 544.534 840.194 554.421 831.692 565.322C827.455 577.827 827.164 591.628 830.663 606.58C837.751 622.853 846.863 639.282 856.68 655.397C866.554 671.498 874.633 686.35 879.891 699.539C882.094 711.604 880.171 721.544 874.055 729.352C864.196 735.835 850.646 740.422 834.144 743.42C815.509 745.755 795.471 747.192 774.914 748.109C754.557 749.376 735.059 750.804 716.959 752.677C700.581 755.668 686.082 759.49 673.47 764.214C662.792 770.378 653.649 777.506 645.677 785.55C638.958 794.905 632.689 805.015 626.458 815.729C620.595 827.375 614.181 839.34 606.951 851.403C599.517 863.876 591.027 876.065 581.482 887.727C571.588 899.157 560.742 909.594 549.101 918.751C537.334 926.977 525.059 933.473 512.532 937.968C500.217 940.946 487.936 941.613 475.871 939.809C464.298 936.245 453.084 930.194 442.332 921.712C432.083 911.767 422.247 899.755 412.755 885.962C403.515 871.533 394.601 856.357 385.881 840.888C376.983 825.857 367.987 811.188 358.796 797.141C349.063 784.334 338.954 772.499 328.397 761.696C317.165 752.395 305.469 744.121 293.318 736.754C280.58 730.698 267.515 725.249 254.257 720.232C240.673 716.049 227.14 711.92 213.879 707.665C200.694 703.767 188.089 699.425 176.298 694.566C165.078 689.71 154.992 684.178 146.229 677.971C135.289 668.067 122.962 644.681 121.532 631.409C121.808 622.129 123.3 612.325 125.8 602.042C128.326 591.404 131.343 580.236 134.533 568.595C137.009 556.447 139.227 543.772 141.007 530.64C141.67 516.959 141.8 502.89 141.471 488.514C140.312 473.799 139.1 458.994 138.112 444.289C137.19 429.591 137.209 415.256 138.499 401.476C140.827 388.078 144.844 375.7 150.58 364.353C157.589 353.457 166.129 343.489 175.972 334.365C186.51 325.426 197.786 317.072 209.476 309.147C220.962 301.026 232.313 293.08 243.313 285.196C253.457 276.807 263.034 268.313 272.047 259.698C280.086 250.482 287.712 241.114 295.073 231.666C301.847 221.69 308.719 211.732 315.877 201.845C323.003 191.669 330.755 181.723 339.26 172.088C348.162 162.41 357.997 153.213 368.706 144.563C379.984 136.157 392.131 128.452 404.99 121.547C418.318 115.11 432.214 109.627 446.445 105.169C460.937 101.414 475.558 98.8159 490.12 97.4624C504.729 96.924 519.081 97.6958 533.068 99.79C546.927 102.704 560.335 106.891 573.185 112.313C585.892 118.358 598.052 125.416 609.634 133.389C621.168 141.586 632.173 150.37 642.626 159.574" stroke="url(#paint5_linear_336_6909)" stroke-width="2" stroke-linecap="round" stroke-dasharray="3 9"/>
<path opacity="0.49" d="M645.871 179.965C655.021 189.136 663.531 198.144 671.447 206.884C679.622 215.009 687.254 222.676 694.379 229.882C705.354 239.322 725.772 255.101 735.498 261.961C745.824 268.324 767.416 282.526 779.42 291.304C788.45 297.887 798.061 305.48 808.329 314.191C819.542 323.577 831.408 334.167 843.823 345.879C856.803 358.238 869.945 371.545 882.892 385.603C895.44 399.873 906.989 414.498 917.017 429.133C925.323 443.35 931.205 457.082 934.15 470.046C934.419 482.054 931.353 493.025 924.896 502.808C915.968 511.657 904.253 519.519 890.328 526.582C875.725 533.447 860.517 540.146 845.653 547.036C832.735 554.874 821.917 563.64 813.892 573.574C809.601 585.206 808.703 598.26 811.033 612.588C816.479 628.32 823.693 644.33 831.641 660.135C839.788 676.012 846.55 690.765 851.07 703.955C853.12 716.052 851.721 726.095 846.704 734.028C838.41 740.556 826.744 745.138 812.214 748.074C795.464 750.153 777.012 751.215 757.595 751.647C737.797 752.21 718.235 752.844 699.423 753.834C681.656 755.793 665.232 758.536 650.252 762.233C636.82 767.251 624.747 773.292 613.821 780.313C604.142 788.61 595.152 797.716 586.536 807.456C578.548 818.102 570.447 829.037 562.044 840.05C553.779 851.428 544.939 862.459 535.484 872.874C526.004 883.027 515.913 892.12 505.331 899.885C494.844 906.764 484.025 911.924 473.068 915.13C462.478 916.965 451.931 916.607 441.596 913.953C431.817 909.746 422.338 903.247 413.234 894.489C404.655 884.487 396.369 872.563 388.349 858.939C380.57 844.781 372.985 829.835 365.472 814.53C357.814 799.587 349.944 784.799 341.793 770.437C333.152 757.123 324.059 744.533 314.499 732.785C304.299 722.338 293.616 712.727 282.507 703.941C270.873 696.365 258.942 689.404 246.9 682.929C234.603 677.339 222.454 671.976 210.634 666.672C198.976 661.922 187.981 657.007 177.872 651.867C164.155 644.316 144.434 627.387 138.941 617.863C136.208 607.798 138.336 585.035 142.239 572.246C144.965 563.139 148.061 553.449 151.278 543.171C153.737 532.319 155.965 520.829 157.807 508.771C158.633 496.114 159.046 482.949 159.144 469.41C158.521 455.493 157.943 441.436 157.694 427.402C157.533 413.407 158.312 399.747 160.329 386.626C163.317 373.924 167.883 362.237 174.036 351.585C181.389 341.438 190.215 332.222 200.299 323.858C211.101 315.763 222.698 308.241 234.779 301.151C246.797 293.925 258.82 286.844 270.626 279.809C281.757 272.291 292.417 264.632 302.566 256.797C311.831 248.35 320.651 239.702 329.115 230.894C336.939 221.566 344.658 212.191 352.467 202.855C360.046 193.238 367.982 183.818 376.406 174.742C384.982 165.645 394.211 157.039 404.115 149.076C414.35 141.368 425.265 134.449 436.769 128.402C448.608 122.881 460.91 118.353 473.518 114.927C486.294 112.202 499.212 110.665 512.093 110.36C524.962 110.836 537.65 112.586 550.003 115.595C562.233 119.353 574.031 124.308 585.327 130.376C596.486 136.989 607.151 144.54 617.216 152.909C627.273 161.453 636.826 170.52 645.856 179.958" stroke="url(#paint6_linear_336_6909)" stroke-width="2" stroke-linecap="round" stroke-dasharray="8 1"/>
<path opacity="0.2" d="M648.921 200.112C656.747 209.405 664.06 218.587 670.934 227.553C678.08 235.981 684.872 244.07 691.363 251.757C701.566 262.162 721.761 280.549 732.058 289.027C739.515 294.37 747.082 299.919 754.85 305.817C763.322 311.779 772.126 318.327 781.337 325.629C791.302 333.282 801.735 341.852 812.613 351.382C824.102 361.388 835.889 372.387 847.818 384.257C859.86 396.501 871.576 409.383 882.638 422.727C892.945 435.997 901.881 449.306 909.02 462.35C914.408 474.766 917.362 486.52 917.548 497.339C915.404 507.163 910.337 515.895 902.434 523.508C892.634 530.285 880.653 536.203 867.002 541.481C853.098 546.716 838.901 551.978 825.217 557.626C813.388 564.328 803.435 572.076 795.918 581.135C791.612 591.922 790.159 604.206 791.419 617.839C795.344 632.905 800.808 648.375 806.959 663.771C813.396 679.32 818.815 693.878 822.433 707.043C823.569 724.305 806.757 746.863 789.012 752.47C774.106 754.652 757.35 755.673 739.334 755.941C720.528 756.099 701.412 756.146 682.502 756.395C664.072 757.365 646.43 759 629.798 761.473C614.259 765.107 599.828 769.706 586.402 775.254C574.076 781.984 562.528 789.503 551.558 797.665C541.326 806.686 531.355 816.014 521.461 825.439C511.973 835.174 502.341 844.592 492.502 853.4C482.94 861.968 473.131 869.517 463.136 875.764C448.606 883.156 420.252 887.252 406.908 883.27C398.681 878.603 390.794 871.828 383.223 862.987C376.201 853.092 369.423 841.406 362.851 828.132C356.535 814.384 350.344 799.854 344.143 784.894C337.819 770.199 331.26 755.527 324.388 741.129C317.082 727.571 309.324 714.544 301.109 702.196C292.336 690.953 283.119 680.432 273.532 670.635C263.481 661.938 253.194 653.853 242.862 646.299C232.335 639.656 222.008 633.361 212.067 627.347C197.759 619.317 174.047 604.065 165.457 596.468C156.8 580.852 158.086 553.97 162.15 543.22C164.816 535.414 167.763 526.983 170.766 517.898C173.037 508.179 175.111 497.763 176.899 486.676C177.774 474.986 178.367 462.719 178.777 450.003C178.608 436.92 178.597 423.645 178.981 410.361C179.507 397.153 180.964 384.242 183.621 371.849C187.161 359.911 192.192 348.979 198.687 339.037C206.3 329.66 215.29 321.228 225.508 313.641C236.437 306.38 248.214 299.706 260.525 293.485C272.91 287.193 285.428 281.065 297.859 274.964C309.762 268.468 321.336 261.795 332.485 254.949C342.844 247.512 352.773 239.843 362.321 231.988C371.187 223.581 379.851 215.102 388.413 206.643C396.584 197.843 404.888 189.245 413.423 180.937C421.886 172.627 430.749 164.81 440.023 157.602C449.42 150.682 459.281 144.547 469.544 139.313C479.96 134.586 490.731 130.882 501.695 128.298C512.734 126.364 523.853 125.619 534.951 126.082C545.969 127.279 556.834 129.686 567.393 133.316C577.823 137.596 587.892 142.995 597.507 149.443C606.999 156.361 616.029 164.139 624.591 172.682C633.113 181.369 641.219 190.554 648.914 200.09" stroke="url(#paint7_linear_336_6909)" stroke-width="2" stroke-linecap="round" stroke-dasharray="5 8"/>
<path opacity="0.77" d="M653.492 221.294C660.086 230.627 666.354 239.928 672.343 249.09C678.634 257.807 684.743 266.294 690.737 274.536C697.161 282.22 703.562 289.698 709.967 296.986C716.93 303.818 723.978 310.607 731.19 317.442C739.01 324.046 747.075 330.901 755.42 338.106C764.407 345.332 773.723 353.133 783.37 361.567C793.601 370.235 804.103 379.633 814.803 389.811C825.821 400.249 836.807 411.378 847.526 423.109C858.058 434.895 867.902 447.035 876.747 459.295C884.631 471.216 890.966 482.908 895.396 494.108C898.415 509.306 889.478 533.599 877.507 542.414C867.386 547.239 855.584 551.405 842.592 555.106C829.644 558.951 816.633 562.987 804.204 567.565C793.487 573.303 784.404 580.171 777.377 588.417C773.092 598.416 771.136 609.909 771.417 622.798C773.946 637.127 777.786 651.94 782.227 666.806C787.035 681.884 791.075 696.168 793.717 709.222C794.313 726.604 779.639 750.195 764.157 756.462C751.006 758.984 735.947 760.261 719.444 760.624C701.921 760.651 683.722 760.345 665.266 760.051C646.834 760.176 628.728 760.758 611.18 761.981C594.322 764.122 578.237 767.081 562.99 770.877C548.616 775.668 534.963 781.205 521.989 787.345C509.77 794.27 498.018 801.49 486.612 808.834C475.805 816.479 465.186 823.858 454.716 830.696C444.734 837.342 434.865 843.077 425.114 847.654C411.329 852.761 385.791 853.494 374.275 848.5C367.332 843.433 360.781 836.496 354.597 827.673C348.938 817.987 343.547 806.661 338.369 793.872C333.444 780.683 328.626 766.716 323.811 752.288C318.893 738.083 313.765 723.785 308.36 709.619C302.592 696.148 296.405 683.067 289.851 670.504C282.797 658.915 275.368 647.918 267.671 637.559C259.541 628.218 251.272 619.462 243.017 611.293C234.571 604.004 226.357 597.17 218.555 590.751C207.363 582.323 189.432 567.319 183.324 560.412C178.036 547.129 181.46 524.76 185.354 515.591C189.068 505.095 195.928 479.7 198.469 464.726C199.334 453.891 200.04 442.455 200.713 430.555C200.93 418.31 201.396 405.855 202.361 393.37C203.478 380.981 205.51 368.881 208.722 357.259C212.723 346.155 218.115 335.989 224.871 326.802C232.626 318.227 241.686 310.574 251.912 303.755C262.835 297.358 274.598 291.55 286.986 286.215C299.533 280.903 312.324 275.784 325.153 270.727C337.603 265.354 349.843 259.828 361.754 254.152C373.024 247.936 383.886 241.482 394.388 234.837C404.204 227.663 413.746 220.373 423.057 213.052C431.882 205.405 440.656 197.898 449.432 190.663C457.958 183.365 466.644 176.516 475.516 170.285C484.289 164.242 493.306 158.969 502.543 154.567C511.727 150.613 521.116 147.675 530.589 145.792C544.734 144.437 572.572 148.472 585.899 153.86C594.541 158.404 602.865 163.997 610.825 170.593C618.65 177.585 626.115 185.39 633.214 193.925C640.257 202.579 647.023 211.732 653.478 221.285" stroke="url(#paint8_linear_336_6909)" stroke-width="2" stroke-linecap="round" stroke-dasharray="5 8"/>
<path opacity="0.37" d="M660.31 244.878C665.819 254.168 671.14 263.521 676.344 272.869C681.863 281.844 687.368 290.727 692.902 299.489C698.881 307.811 704.966 316.071 711.227 324.257C718.025 332.071 725.032 339.957 732.287 347.946C740.117 355.731 748.232 363.787 756.63 372.172C765.548 380.536 774.748 389.37 784.141 398.71C793.905 408.122 803.766 418.089 813.563 428.555C823.448 439.066 832.997 449.977 842.032 461.175C850.643 472.182 858.325 483.214 864.831 494.087C872.272 509.346 876.104 535.489 871.686 545.636C866.504 551.138 859.306 555.7 850.237 559.371C840.252 562.53 829.026 565.179 816.948 567.584C805.137 570.287 793.4 573.327 782.232 577.05C772.634 581.989 764.404 588.116 757.854 595.642C753.587 604.869 751.199 615.58 750.584 627.698C751.856 641.205 754.201 655.26 757.046 669.459C760.287 683.971 762.962 697.824 764.554 710.677C764.364 728.038 751.048 752.632 737.443 759.693C725.842 762.713 712.423 764.415 697.498 765.088C681.451 765.198 664.475 764.786 646.941 764.144C629.098 763.62 611.195 763.314 593.491 763.396C576.125 764.091 559.213 765.404 542.9 767.359C527.205 770.093 512.163 773.449 497.748 777.327C484.013 781.847 470.873 786.684 458.248 791.617C446.273 796.848 434.746 801.882 423.651 806.466C413.141 810.915 403.04 814.615 393.335 817.312C379.927 819.931 356.296 817.085 346.187 811.078C340.25 805.636 334.774 798.553 329.772 789.838C325.267 780.418 321.102 769.551 317.211 757.349C313.57 744.807 310.08 731.567 306.648 717.864C303.135 704.325 299.498 690.653 295.66 677.035C291.501 663.99 287.045 651.211 282.306 638.871C277.142 627.328 271.708 616.316 266.072 605.881C260.06 596.342 253.974 587.395 247.953 579.022C238.724 568.004 222.085 549.51 215.343 541.757C204.931 520.269 207.972 498.074 211.471 489.999C214.613 480.571 220.379 457.31 222.622 443.42C223.44 433.332 224.241 422.664 225.134 411.54C225.677 400.097 226.576 388.471 228.015 376.798C229.638 365.261 232.178 354.014 235.835 343.227C240.2 332.96 245.846 323.617 252.763 315.209C260.558 307.448 269.563 300.597 279.672 294.58C290.442 289.009 302.068 284.087 314.326 279.652C326.814 275.345 339.638 271.266 352.588 267.32C365.304 263.141 377.939 258.882 390.344 254.494C402.228 249.662 413.787 244.611 425.007 239.391C435.581 233.675 445.857 227.842 455.824 221.962C465.248 215.723 474.477 209.583 483.555 203.675C492.241 197.641 500.895 192.008 509.515 186.915C522.065 179.805 547.029 169.97 559.382 167.686C571.385 167.165 594.546 172.353 605.469 178.05C615.841 185.484 634.939 205.606 643.703 217.859C649.417 226.349 654.943 235.369 660.307 244.855" stroke="url(#paint9_linear_336_6909)" stroke-width="2" stroke-linecap="round" stroke-dasharray="8 11"/>
<path opacity="0.7" d="M669.13 271.822C673.657 281.017 678.13 290.402 682.597 299.867C687.375 309.019 692.239 318.245 697.253 327.471C708.544 344.838 720.781 362.476 734.072 380.584C749.314 397.83 765.487 416.318 782.168 436.092C799.676 455.523 816.344 476.141 830.76 497.044C843.142 516.345 850.752 534.297 852.032 549.492C848.576 561.211 837.968 569.408 820.851 574.202C801.628 577.654 780.011 580.906 759.044 586.056C746.784 593.104 731.348 616.213 728.548 632.486C728.698 645.116 729.657 658.328 731.049 671.758C732.852 685.56 734.19 698.88 734.708 711.353C733.085 734.228 724.643 751.129 708.808 761.674C686.838 767.702 658.85 769.122 627.009 767.839C593.162 766.025 558.734 764.593 525.296 764.558C493.449 766.647 463.722 770.413 436.44 774.998C411.626 780.551 389.169 784.99 369.18 786.806C351.842 786.989 336.962 782.702 324.691 773.113C319.521 767.26 314.922 760.034 310.883 751.445C307.327 742.264 304.205 731.871 301.465 720.35C298.945 708.545 296.678 696.143 294.562 683.336C292.385 670.627 290.186 657.792 287.91 644.998C282.432 620.824 276.221 597.864 269.469 576.944C261.277 559.073 253.31 543.424 246.419 530.101C236.723 514.775 230.687 491.985 234.615 480.967C237.148 472.266 240.932 461.466 245.289 448.185C247.301 432.437 249.445 414.023 252.003 393.59C252.843 382.935 254.131 372.106 255.984 361.266C258.034 350.594 260.997 340.208 265.001 330.28C269.637 320.89 275.44 312.364 282.391 304.774C290.122 297.825 298.952 291.769 308.83 286.541C330.296 277.54 354.544 270.694 380.16 265.054C405.32 258.919 430.135 252.512 453.857 245.582C475.436 236.976 495.776 228.043 514.903 219.53C532.161 210.326 548.78 202.777 564.736 197.764C579.439 193.672 593.651 193.094 607.08 196.424C619.441 201.387 630.975 210.284 641.425 222.94C648.777 233.385 662.513 258.026 669.118 271.811" stroke="url(#paint10_linear_336_6909)" stroke-width="2" stroke-linecap="round" stroke-dasharray="3 1"/>
<path opacity="0.13" d="M678.79 302.435C686.262 320.362 694.018 339.183 702.344 358.494C712.2 376.662 723.052 395.396 734.853 414.673C748.244 433.048 762.232 452.349 776.18 472.296C790.522 491.352 803.439 510.652 813.656 529.243C821.873 545.689 825.455 560.097 823.379 571.419C817.692 579.519 806.186 584.42 789.623 586.618C772.11 588.182 752.933 590.096 734.422 594.328C720.63 603.278 710.686 617.416 705.031 636.921C704.348 661.303 704.874 686.871 704.051 711.001C701.162 733.264 692.813 750.401 678.423 761.775C659.008 768.835 634.091 771.139 605.287 770.177C574.109 767.777 541.625 764.711 509.363 762.046C477.917 760.454 448.115 759.883 420.643 759.84C395.365 760.444 372.748 760.239 353.104 758.049C336.061 754.671 322 747.834 311.04 736.858C302.441 723.753 296.379 706.389 292.546 685.077C289.589 662.848 287.666 639.194 286.156 615.374C283.669 592.899 280.94 571.554 278.034 552.086C273.725 535.119 269.736 520.288 266.667 507.774C261.84 493.078 261.225 471.367 265.483 460.795C267.656 452.281 270.799 441.823 274.461 429.07C276.109 414.001 278.183 396.591 281.057 377.458C283.302 357.526 287.918 337.64 296.012 319.089C306.255 302.67 320.791 289.73 339.158 280.252C359.699 272.927 382.955 267.9 407.687 264.344C432.303 260.72 456.897 257.165 480.66 253.365C502.637 248.179 523.368 242.751 542.699 237.613C560.088 231.666 576.362 227.042 591.448 224.512C605.009 222.469 617.597 223.416 629.091 227.781C639.353 233.285 648.683 242.32 656.987 254.818C664.666 267.978 671.842 283.974 678.778 302.424" stroke="url(#paint11_linear_336_6909)" stroke-width="2" stroke-linecap="round" stroke-dasharray="4 4"/>
<path opacity="0.74" d="M687.543 336.133C693.405 353.68 699.591 372.353 706.333 391.729C714.413 410.16 723.326 429.287 732.918 448.837C743.777 467.437 754.826 486.521 765.39 505.622C776.079 523.417 785.016 540.655 791.148 556.419C795.696 575.281 778.342 594.841 757.026 596.323C741.407 596.653 724.618 597.822 708.381 601.481C696.08 609.634 686.55 622.636 679.985 640.534C677.39 662.916 675.571 686.568 672.685 709.186C668.471 730.524 660.002 747.499 646.701 759.384C629.477 767.33 607.467 770.557 581.862 770.142C553.938 767.671 524.3 763.632 494.394 759.046C464.744 754.626 436.266 750.473 409.876 746.47C385.292 742.738 363.398 738.363 344.657 732.588C328.301 725.875 315.211 716.663 305.486 704.427C297.899 690.603 293.168 673.597 290.98 653.645C289.632 632.972 289.722 611.394 290.625 589.9C290.708 569.395 290.942 549.993 291.311 532.364C290.307 516.646 289.676 502.945 289.745 491.386C288.908 477.28 292.56 455.7 297.002 444.856C298.954 436.063 301.635 425.538 304.843 412.981C306.355 398.362 308.55 381.789 311.795 363.874C314.661 345.382 319.909 327.15 328.389 310.36C338.704 295.642 352.803 284.29 370.27 276.324C389.61 270.548 411.488 267.221 434.841 265.609C458.326 264.293 482.014 263.427 505.097 262.641C526.78 260.812 547.305 258.878 566.339 257.176C583.567 254.661 599.397 253.145 613.686 253.276C626.352 253.539 637.73 256.225 647.722 261.791C656.449 268.063 664.08 277.37 670.669 289.796C676.668 302.613 682.203 318.145 687.543 336.133Z" stroke="url(#paint12_linear_336_6909)" stroke-width="2" stroke-linecap="round" stroke-dasharray="11 3"/>
<path opacity="0.26" d="M693.528 371.416C697.863 388.437 702.406 406.611 707.32 425.485C713.382 443.581 719.968 462.28 726.898 481.187C734.819 499.088 742.555 516.987 749.504 534.341C756.493 550.168 761.606 564.808 764.085 577.509C764.126 591.792 743.299 603.599 723.569 603.038C709.862 602.761 695.285 603.622 681.073 606.993C670.066 614.571 660.867 626.485 653.576 642.761C649.365 663.053 645.558 684.594 640.878 705.451C635.45 725.466 626.735 741.89 614.285 753.898C598.943 762.482 579.661 766.542 557.268 766.813C532.822 764.7 506.617 760.347 479.906 754.639C453.104 748.385 427.141 741.672 402.933 734.681C380.129 727.596 359.856 719.905 342.657 711.169C327.537 701.721 315.676 690.532 307.244 677.289C300.694 662.889 297.139 646.296 296.332 627.698C296.271 608.548 297.942 589.035 300.749 569.881C302.837 551.422 305.429 534.073 308.338 518.369C309.93 504.022 311.899 491.479 314.364 480.811C316.624 467.122 323.544 444.773 328.195 433.106C330.124 423.772 332.622 412.935 335.649 400.38C337.317 386.079 339.801 370.248 343.499 353.487C346.996 336.409 352.773 319.817 361.47 304.761C371.705 291.683 385.168 281.852 401.495 275.302C419.426 270.924 439.612 269.085 461.156 269.178C482.966 269.886 505.134 271.408 526.867 273.325C547.573 274.573 567.235 275.903 585.459 277.496C602.101 278.312 617.216 279.889 630.631 282.728C642.509 285.434 652.861 290.027 661.645 296.909C669.232 304.156 675.579 313.932 680.802 326.334C685.507 338.969 689.658 354.039 693.528 371.416Z" stroke="url(#paint13_linear_336_6909)" stroke-width="2" stroke-linecap="round" stroke-dasharray="11 5"/>
<path opacity="0.3" d="M695.099 406.13C698.025 422.434 700.907 439.703 703.889 457.51C707.827 474.666 711.94 492.176 716.053 509.568C720.978 525.975 725.418 541.942 728.905 556.88C733.339 576.205 730.315 602.016 721.052 607.216C713.098 608.373 702.547 607.871 689.936 606.525C678.021 606.144 665.419 607.055 652.946 610.377C642.998 617.492 634.076 628.377 626.221 643.004C620.707 661.176 615.319 680.454 609.179 699.272C602.712 717.684 593.77 733.145 582.055 744.88C568.307 753.744 551.481 758.478 532.189 759.477C511.273 758.018 488.785 753.912 465.741 747.871C442.498 740.791 419.801 732.648 398.611 723.803C378.47 714.538 360.575 704.57 345.505 693.829C332.162 682.454 321.866 669.906 314.853 656.067C309.455 641.396 306.975 625.325 307.285 608.074C308.26 590.383 311.091 572.814 315.227 555.864C318.784 539.336 323.036 523.949 327.705 510.021C331.197 496.969 335.021 485.452 339.154 475.468C343.687 461.923 353.139 438.108 358.097 425.356C360.262 415.344 362.879 404.098 366.004 391.522C368.083 377.511 371.046 362.447 375.245 346.861C379.376 331.144 385.589 316.158 394.359 302.798C404.363 291.277 417.038 282.887 432.079 277.636C448.411 274.457 466.645 273.864 486.053 275.343C505.814 277.682 525.931 281.151 545.742 285.309C564.842 289.157 583.046 293.303 599.895 297.76C615.47 301.615 629.525 306.064 641.856 311.417C652.852 316.52 662.208 323.039 669.922 331.265C676.58 339.604 681.902 349.937 685.992 362.391C689.661 374.947 692.617 389.553 695.099 406.13Z" stroke="url(#paint14_linear_336_6909)" stroke-width="2" stroke-linecap="round" stroke-dasharray="10 3"/>
<path opacity="0.36" d="M691.31 437.794C692.909 453.164 694.182 469.148 695.277 485.381C697.177 501.086 698.91 516.791 700.358 532.06C702.504 546.411 703.983 559.944 704.479 572.162C704.687 587.55 695.668 605.989 685.451 608.644C677.68 608.876 668.03 607.962 656.887 606.619C646.541 606.527 635.605 607.739 624.587 611.126C615.482 617.844 606.833 627.724 598.614 640.687C592.112 656.699 585.526 673.655 578.34 690.276C571.062 706.799 562.006 720.963 550.974 732.017C538.643 740.833 524.053 745.972 507.651 747.629C490.072 746.999 471.275 743.543 452.052 737.841C432.649 730.822 413.681 722.325 395.936 712.746C379.012 702.537 363.999 691.475 351.451 679.715C340.303 667.39 331.87 654.246 326.414 640.32C322.262 625.791 320.826 610.479 322.049 594.546C323.824 578.302 327.466 562.52 332.415 547.533C336.915 532.742 342.212 519.035 347.965 506.602C352.692 494.636 357.699 483.894 362.91 474.344C366.907 464.994 371.129 456.375 375.549 448.206C378.762 439.52 382.228 430.619 385.958 421.193C388.574 410.585 391.565 399.017 395.033 386.508C397.74 372.878 401.304 358.615 406.035 344.236C410.785 329.922 417.335 316.517 426.032 304.798C435.693 294.759 447.469 287.675 461.067 283.562C475.694 281.373 491.825 281.755 508.878 284.27C526.294 287.795 544.025 292.674 561.482 298.492C578.481 304.325 594.695 310.656 609.72 317.396C623.771 323.733 636.403 330.569 647.37 338.064C657.275 345.298 665.552 353.524 672.177 362.961C677.963 372.367 682.357 383.248 685.429 395.695C688.196 408.165 690.094 422.209 691.31 437.794Z" stroke="url(#paint15_linear_336_6909)" stroke-width="2" stroke-linecap="round"/>
<path opacity="0.93" d="M681.962 464.072C682.37 478.27 682.198 492.688 681.613 506.995C681.685 520.865 681.364 534.399 680.585 547.196C679.918 564.712 674.623 591.464 668.906 599.541C661.64 604.084 639.409 604.679 625.226 603.332C616.19 603.761 606.612 605.401 596.79 608.886C588.358 615.224 579.966 624.118 571.582 635.422C564.411 649.286 557.064 663.88 549.221 678.188C541.455 692.657 532.454 705.245 522.145 715.3C511.077 723.716 498.496 728.977 484.713 731.133C470.2 731.33 454.885 728.773 439.344 723.874C423.7 717.619 408.478 709.633 394.324 700.33C380.792 690.246 368.852 679.191 359.039 667.417C350.271 655.111 343.845 642.163 339.993 628.716C337.169 614.854 336.742 600.54 338.679 585.969C341.102 571.169 345.229 557.002 350.591 543.654C355.624 530.372 361.438 518.053 367.704 506.762C373.135 495.65 378.824 485.462 384.619 476.105C389.375 466.683 394.23 457.699 399.124 448.986C402.989 439.662 406.983 430.078 411.11 420.089C414.363 409.092 417.928 397.424 421.92 385.176C425.369 372.123 429.616 358.817 434.849 345.728C440.151 332.823 446.93 320.983 455.429 310.831C464.653 302.173 475.427 296.292 487.542 293.125C500.399 291.714 514.369 292.765 528.979 295.926C543.916 300.156 559.04 305.884 573.885 312.733C588.464 319.818 602.372 327.616 615.2 335.908C627.355 343.997 638.225 352.569 647.586 361.64C656.136 370.483 663.194 380.016 668.662 390.337C673.499 400.58 676.954 411.82 679.083 424.103C680.98 436.351 681.922 449.701 681.962 464.072Z" stroke="url(#paint16_linear_336_6909)" stroke-width="2" stroke-linecap="round" stroke-dasharray="10 5"/>
<path opacity="0.29" d="M667.758 483.218C667.106 496.051 665.734 508.694 663.803 520.891C662.412 532.772 660.48 544.026 658 554.323C654.697 568.331 644.745 588.445 637.53 593.952C629.51 596.994 608.397 597.285 595.813 596.781C587.811 597.808 579.3 599.906 570.466 603.459C562.577 609.386 554.48 617.245 546.151 626.925C538.639 638.697 530.892 650.945 522.84 662.945C514.891 675.255 506.165 686.068 496.658 694.88C486.786 702.576 475.99 707.681 464.56 710.132C452.744 711.058 440.518 709.453 428.328 705.615C416.133 700.556 404.398 693.675 393.627 685.37C383.342 676.298 374.4 666.144 367.205 655.185C360.828 643.768 356.377 631.738 354.055 619.297C352.527 606.563 353.029 593.526 355.545 580.367C358.441 567.06 362.821 554.379 368.304 542.42C373.555 530.448 379.524 519.243 385.904 508.821C391.665 498.379 397.653 488.565 403.721 479.313C408.978 469.819 414.257 460.561 419.541 451.405C424.002 441.662 428.535 431.7 433.16 421.439C437.113 410.392 441.343 398.94 445.927 387.228C450.164 374.987 455.039 362.811 460.72 351.09C466.482 339.669 473.363 329.366 481.532 320.71C490.211 313.357 499.953 308.506 510.542 306.138C521.665 305.274 533.513 306.712 545.697 310.133C558.141 314.623 570.642 320.646 582.828 327.874C594.859 335.513 606.267 343.972 616.741 353.039C626.772 362.087 635.677 371.61 643.231 381.52C650.248 391.308 655.914 401.571 660.133 412.293C663.927 422.954 666.417 434.212 667.611 446.046C668.675 457.86 668.719 470.282 667.758 483.218Z" stroke="url(#paint17_linear_336_6909)" stroke-width="2" stroke-linecap="round" stroke-dasharray="7 4"/>
<path opacity="0.18" d="M650.014 494.486C647.312 516.973 641.813 537.211 634.258 553.691C628.428 568.645 619.911 578.743 608.626 583.396C598.483 587.062 585.198 587.531 569.4 587.264C555.573 591.906 540.102 600.963 523.352 615.224C508.647 636.059 492.646 656.069 475.523 671.265C457.865 683.814 438.614 687.621 419.884 683.136C401.544 674.694 385.924 659.987 375.592 641.35C367.702 621.136 366.137 598.629 371.562 575.466C378.24 551.896 389.167 530.259 402.065 510.958C413.186 491.204 425.025 472.556 436.745 454.508C446.137 434.457 455.965 413.452 466.519 392.204C476.21 369.827 488.293 349.331 503.464 333.993C519.984 322.939 538.892 320.875 558.513 326.583C578.84 336.094 598.308 350.9 614.808 368.709C630.208 387.149 641.569 407.341 647.784 428.417C652.92 449.42 653.66 471.688 650.014 494.486Z" stroke="url(#paint18_linear_336_6909)" stroke-width="2" stroke-linecap="round" stroke-dasharray="5 7"/>
<path opacity="0.32" d="M630.352 498.193C626.326 517.465 619.593 533.829 610.99 546.437C603.776 558.199 594.409 565.787 583.162 569.219C573.035 572.722 560.723 574.114 546.669 575.214C533.987 580.505 519.719 588.861 504.168 600.579C489.802 617.334 474.768 633.094 459.588 645.108C444.387 655.824 428.992 659.747 414.911 656.891C401.473 651.225 390.711 639.88 384.374 624.601C379.83 608.132 380.347 589.151 386.405 569.066C393.446 548.751 403.958 529.474 416.168 511.588C427.26 493.212 439.14 475.202 451.011 457.511C461.356 438.375 472.126 418.703 483.367 399.54C494.089 379.947 506.418 362.567 520.571 350.024C535.54 340.952 551.406 339.526 566.985 344.772C583.013 353.273 597.799 366.73 609.833 383.126C621.257 400.485 629.219 419.545 632.895 439.077C635.958 458.704 635.142 478.759 630.352 498.193Z" stroke="url(#paint19_linear_336_6909)" stroke-width="2" stroke-linecap="round" stroke-dasharray="3 4"/>
<path opacity="0.52" d="M610.413 495.768C605.545 511.724 598.339 524.746 589.569 534.426C581.815 543.761 572.41 549.818 561.744 552.881C551.977 556.606 540.675 558.997 528.175 561.22C516.505 566.737 503.5 574.185 489.458 583.483C476.016 596.476 462.473 608.347 449.471 617.344C430.609 627.72 401.069 620.32 394.22 604.398C392.154 591.741 394.118 576.486 400.472 559.629C407.533 542.658 417.406 525.841 428.747 509.644C439.466 493.069 451.061 476.403 462.789 459.945C473.614 442.595 484.846 425.113 496.301 408.601C507.485 392.149 519.58 377.956 532.444 368.009C545.759 360.741 558.832 359.712 570.927 364.15C583.226 371.176 593.981 382.509 602.238 396.537C610.156 411.626 615.166 428.308 616.664 445.294C617.886 462.507 615.84 479.704 610.413 495.768Z" stroke="url(#paint20_linear_336_6909)" stroke-width="2" stroke-linecap="round" stroke-dasharray="5 9"/>
<path opacity="0.1" d="M591.365 489.375C586.208 502.113 579.123 512.328 570.82 519.909C563.199 527.444 554.321 532.641 544.592 535.824C535.442 539.821 525.235 542.965 514.244 545.934C503.645 551.255 492.073 557.562 479.834 564.631C467.841 574.228 456.217 582.68 445.541 588.955C419.955 594.616 406.974 565.949 414.584 546.535C421.311 532.903 430.317 518.805 440.602 504.77C450.592 490.534 461.517 475.968 472.656 461.611C483.334 446.855 494.401 432.243 505.493 418.806C516.416 405.678 527.723 394.623 539.051 387.064C550.555 381.449 561.105 380.66 570.255 384.082C579.462 389.412 586.992 398.242 592.277 409.351C597.4 421.389 600.09 434.889 599.995 448.674C599.774 462.698 596.96 476.597 591.365 489.375Z" stroke="url(#paint21_linear_336_6909)" stroke-width="2" stroke-linecap="round" stroke-dasharray="6 3"/>
<path opacity="0.3" d="M573.831 481.591C564.247 500.938 548.893 513.251 531.562 519.32C515.49 528.196 496.022 536.553 475.673 544.846C446.82 563.544 418.881 557.432 429.793 530.262C441.987 509.513 461.003 485.555 481.213 462.696C500.586 439.479 521.543 418.184 540.601 406.336C559.742 399.564 573.683 406.568 580.136 421.922C586.237 440.067 584.489 462.223 573.831 481.591Z" stroke="url(#paint22_linear_336_6909)" stroke-width="2" stroke-linecap="round" stroke-dasharray="10 10"/>
<path opacity="0.36" d="M557.686 474.807C549.213 488.537 536.378 498.311 522.218 504.352C508.552 512.21 492.626 519.334 476.985 525.006C454.975 536.399 437.049 531.28 446.895 512.374C456.897 497.761 472.376 480.234 488.981 463.627C505.247 447.297 522.625 432.784 537.621 425.058C557.327 422.429 568.038 453.645 557.686 474.807Z" stroke="url(#paint23_linear_336_6909)" stroke-width="2" stroke-linecap="round" stroke-dasharray="6 8"/>
<path opacity="0.41" d="M542.24 470.779C529.745 488.109 504.616 500.962 483.492 505.974C461.664 516.902 452.931 513.36 466.238 495.145C480.757 477.079 509.9 452.304 530.854 442.631C551.173 438.291 555.868 453.555 542.24 470.779Z" stroke="url(#paint24_linear_336_6909)" stroke-width="2" stroke-linecap="round"/>
<defs>
<linearGradient id="paint0_linear_336_6909" x1="533.986" y1="27.2402" x2="533.986" y2="1019.99" gradientUnits="userSpaceOnUse">
<stop stop-color="#1F89DB"/>
<stop offset="1" stop-color="#F42A8B"/>
</linearGradient>
<linearGradient id="paint1_linear_336_6909" x1="564.821" y1="47.2247" x2="497.435" y2="1001.32" gradientUnits="userSpaceOnUse">
<stop stop-color="#1F89DB"/>
<stop offset="1" stop-color="#F42A8B"/>
</linearGradient>
<linearGradient id="paint2_linear_336_6909" x1="593.046" y1="69.227" x2="463.723" y2="980.178" gradientUnits="userSpaceOnUse">
<stop stop-color="#1F89DB"/>
<stop offset="1" stop-color="#F42A8B"/>
</linearGradient>
<linearGradient id="paint3_linear_336_6909" x1="618.518" y1="92.9482" x2="432.995" y2="956.861" gradientUnits="userSpaceOnUse">
<stop stop-color="#1F89DB"/>
<stop offset="1" stop-color="#F42A8B"/>
</linearGradient>
<linearGradient id="paint4_linear_336_6909" x1="641.118" y1="118.078" x2="405.354" y2="931.703" gradientUnits="userSpaceOnUse">
<stop stop-color="#1F89DB"/>
<stop offset="1" stop-color="#F42A8B"/>
</linearGradient>
<linearGradient id="paint5_linear_336_6909" x1="660.787" y1="144.294" x2="380.9" y2="905.005" gradientUnits="userSpaceOnUse">
<stop stop-color="#1F89DB"/>
<stop offset="1" stop-color="#F42A8B"/>
</linearGradient>
<linearGradient id="paint6_linear_336_6909" x1="677.467" y1="171.325" x2="359.693" y2="877.087" gradientUnits="userSpaceOnUse">
<stop stop-color="#1F89DB"/>
<stop offset="1" stop-color="#F42A8B"/>
</linearGradient>
<linearGradient id="paint7_linear_336_6909" x1="688.335" y1="197.368" x2="338.984" y2="846.727" gradientUnits="userSpaceOnUse">
<stop stop-color="#1F89DB"/>
<stop offset="1" stop-color="#F42A8B"/>
</linearGradient>
<linearGradient id="paint8_linear_336_6909" x1="698.986" y1="224.894" x2="324.412" y2="816.953" gradientUnits="userSpaceOnUse">
<stop stop-color="#1F89DB"/>
<stop offset="1" stop-color="#F42A8B"/>
</linearGradient>
<linearGradient id="paint9_linear_336_6909" x1="706.786" y1="252.633" x2="313.424" y2="786.958" gradientUnits="userSpaceOnUse">
<stop stop-color="#1F89DB"/>
<stop offset="1" stop-color="#F42A8B"/>
</linearGradient>
<linearGradient id="paint10_linear_336_6909" x1="711.9" y1="280.648" x2="306.184" y2="757.362" gradientUnits="userSpaceOnUse">
<stop stop-color="#1F89DB"/>
<stop offset="1" stop-color="#F42A8B"/>
</linearGradient>
<linearGradient id="paint11_linear_336_6909" x1="714.129" y1="307.669" x2="301.967" y2="727.967" gradientUnits="userSpaceOnUse">
<stop stop-color="#1F89DB"/>
<stop offset="1" stop-color="#F42A8B"/>
</linearGradient>
<linearGradient id="paint12_linear_336_6909" x1="713.121" y1="333.404" x2="300.376" y2="698.827" gradientUnits="userSpaceOnUse">
<stop stop-color="#1F89DB"/>
<stop offset="1" stop-color="#F42A8B"/>
</linearGradient>
<linearGradient id="paint13_linear_336_6909" x1="709.278" y1="357.761" x2="301.526" y2="670.414" gradientUnits="userSpaceOnUse">
<stop stop-color="#1F89DB"/>
<stop offset="1" stop-color="#F42A8B"/>
</linearGradient>
<linearGradient id="paint14_linear_336_6909" x1="702.699" y1="380.33" x2="305.26" y2="642.791" gradientUnits="userSpaceOnUse">
<stop stop-color="#1F89DB"/>
<stop offset="1" stop-color="#F42A8B"/>
</linearGradient>
<linearGradient id="paint15_linear_336_6909" x1="693.748" y1="401.101" x2="311.667" y2="616.393" gradientUnits="userSpaceOnUse">
<stop stop-color="#1F89DB"/>
<stop offset="1" stop-color="#F42A8B"/>
</linearGradient>
<linearGradient id="paint16_linear_336_6909" x1="682.777" y1="420.117" x2="320.743" y2="591.714" gradientUnits="userSpaceOnUse">
<stop stop-color="#1F89DB"/>
<stop offset="1" stop-color="#F42A8B"/>
</linearGradient>
<linearGradient id="paint17_linear_336_6909" x1="669.818" y1="437.107" x2="332.245" y2="568.857" gradientUnits="userSpaceOnUse">
<stop stop-color="#1F89DB"/>
<stop offset="1" stop-color="#F42A8B"/>
</linearGradient>
<linearGradient id="paint18_linear_336_6909" x1="655.074" y1="451.799" x2="346.24" y2="547.872" gradientUnits="userSpaceOnUse">
<stop stop-color="#1F89DB"/>
<stop offset="1" stop-color="#F42A8B"/>
</linearGradient>
<linearGradient id="paint19_linear_336_6909" x1="638.875" y1="463.879" x2="361.836" y2="529.063" gradientUnits="userSpaceOnUse">
<stop stop-color="#1F89DB"/>
<stop offset="1" stop-color="#F42A8B"/>
</linearGradient>
<linearGradient id="paint20_linear_336_6909" x1="621.17" y1="471.059" x2="378.977" y2="510.285" gradientUnits="userSpaceOnUse">
<stop stop-color="#1F89DB"/>
<stop offset="1" stop-color="#F42A8B"/>
</linearGradient>
<linearGradient id="paint21_linear_336_6909" x1="602.986" y1="476.448" x2="406.473" y2="494.194" gradientUnits="userSpaceOnUse">
<stop stop-color="#1F89DB"/>
<stop offset="1" stop-color="#F42A8B"/>
</linearGradient>
<linearGradient id="paint22_linear_336_6909" x1="584.314" y1="478.031" x2="426.199" y2="481.122" gradientUnits="userSpaceOnUse">
<stop stop-color="#1F89DB"/>
<stop offset="1" stop-color="#F42A8B"/>
</linearGradient>
<linearGradient id="paint23_linear_336_6909" x1="560.511" y1="481.152" x2="446.48" y2="475.336" gradientUnits="userSpaceOnUse">
<stop stop-color="#1F89DB"/>
<stop offset="1" stop-color="#F42A8B"/>
</linearGradient>
<linearGradient id="paint24_linear_336_6909" x1="546.485" y1="482.516" x2="464.253" y2="472.478" gradientUnits="userSpaceOnUse">
<stop stop-color="#1F89DB"/>
<stop offset="1" stop-color="#F42A8B"/>
</linearGradient>
</defs>
</svg>
