<svg width="986" height="986" viewBox="0 0 986 986" fill="none" xmlns="http://www.w3.org/2000/svg">
<path opacity="0.26" d="M466.489 138.348C478.025 142.378 489.499 146.889 500.888 151.659C512.301 155.985 523.627 160.274 534.892 164.415C546.194 167.793 557.46 170.911 568.675 173.795C579.977 175.915 591.292 177.899 602.606 179.834C614.056 181.276 625.567 182.891 637.128 184.826C648.886 186.625 660.731 188.979 672.649 191.974C684.764 195.166 696.966 199.172 709.217 204.016C721.629 209.278 734.04 215.429 746.365 222.454C758.739 229.948 770.916 238.267 782.773 247.35C794.482 256.841 805.697 266.984 816.272 277.695C826.428 288.713 835.721 300.188 844.003 311.995C851.583 324.024 857.955 336.3 862.972 348.748C867.088 361.32 869.763 374.002 870.897 386.721C871.118 399.503 869.837 412.296 867.101 425.04C863.674 437.821 858.978 450.528 853.161 463.112C847.097 475.72 840.257 488.193 832.862 500.469C825.787 512.745 818.7 524.527 811.798 535.768C805.71 546.983 800.04 557.645 794.864 567.714C790.723 577.734 787.124 587.151 784.03 595.951C781.922 604.701 780.197 612.824 778.755 620.354C777.732 631.385 776.068 651.179 774.7 660.373C773.739 666.807 772.136 673.204 769.844 679.711C767.404 686.885 764.15 694.415 760.058 702.426C755.683 711.362 750.432 720.951 744.344 731.242C737.935 742.495 730.724 754.426 722.738 766.948C714.48 780.099 705.532 793.52 695.956 806.918C686.182 820.241 675.853 832.96 665.057 844.657C654.137 855.343 642.81 864.365 631.151 871.328C619.43 876.517 607.425 879.253 595.199 879.389C582.96 877.614 570.524 873.386 557.953 866.928C545.369 859.299 532.662 850.191 519.856 840.109C507.063 830.311 494.466 820.796 482.092 812.057C469.706 804.909 457.528 799.116 445.573 794.815C433.593 792.559 421.811 791.733 410.25 792.152C398.64 794.161 387.214 796.848 375.999 799.855C364.721 803.516 353.629 806.782 342.746 809.333C331.801 811.589 321.041 812.6 310.516 812.193C299.929 810.874 289.563 807.941 279.469 803.393C269.326 797.785 259.478 790.649 249.951 782.144C240.424 772.753 231.254 762.24 222.491 750.802C213.789 738.797 205.531 726.152 197.767 713.05C190.125 699.703 183.026 686.108 176.494 672.415C170.146 658.673 164.403 644.967 159.325 631.36C154.457 617.815 150.254 604.406 146.754 591.206C143.475 578.079 140.899 565.126 139.05 552.382C137.399 539.699 136.45 527.19 136.24 514.865C136.166 502.576 136.783 490.436 138.126 478.481C139.519 466.526 141.528 455.027 144.128 443.971C146.692 432.916 149.785 422.304 153.36 412.16C156.823 401.992 160.718 392.292 165.019 383.049C169.148 373.78 173.634 364.968 178.466 356.612C183.088 348.169 188.03 340.145 193.28 332.504C198.309 324.702 203.646 317.221 209.266 309.998C214.701 302.505 220.445 295.171 226.484 287.961C232.375 280.344 238.612 272.728 245.169 265.061C251.627 256.915 258.443 248.657 265.616 240.288C272.727 231.427 280.233 222.479 288.109 213.481C295.96 204.151 304.205 194.932 312.821 185.935C321.436 176.913 330.433 168.347 339.775 160.434C349.142 152.879 358.842 146.224 368.862 140.653C378.895 135.772 389.236 132.161 399.86 129.905C410.472 128.463 421.367 128.377 432.472 129.61C443.589 131.471 454.928 134.429 466.476 138.348" stroke="url(#paint0_linear_336_6935)" stroke-width="2" stroke-linecap="round" stroke-dasharray="2 3"/>
<path opacity="0.34" d="M492.471 150.957C503.304 155.725 514.08 160.947 524.788 166.435C535.536 171.519 546.26 176.601 556.957 181.545C567.753 185.792 578.552 189.816 589.355 193.607C600.296 196.665 611.272 199.578 622.277 202.431C633.442 204.764 644.66 207.237 655.911 209.934C667.335 212.446 678.789 215.417 690.266 218.934C701.896 222.572 713.511 226.926 725.075 232.018C736.713 237.449 748.232 243.699 759.56 250.739C770.846 258.183 781.83 266.409 792.381 275.334C802.722 284.627 812.473 294.558 821.533 305.008C830.128 315.747 837.841 326.893 844.531 338.362C850.554 350.006 855.388 361.863 858.94 373.852C861.658 385.918 863.026 398.036 862.963 410.128C862.095 422.237 859.848 434.286 856.264 446.203C852.073 458.127 846.731 469.908 840.378 481.493C833.801 493.088 826.521 504.497 818.713 515.671C811.201 526.866 803.675 537.566 796.333 547.747C789.704 557.979 783.446 567.694 777.657 576.885C772.778 586.129 768.407 594.84 764.529 603.029C761.538 611.269 758.94 619.018 756.636 626.269C754.263 637.123 750.206 657.297 747.85 667.04C746.265 673.909 744.147 680.815 741.425 687.863C738.57 695.569 734.975 703.605 730.597 712.069C725.952 721.329 720.478 731.136 714.199 741.479C707.595 752.59 700.191 764.175 692.047 776.092C683.626 788.433 674.524 800.801 664.835 812.905C654.964 824.786 644.604 835.878 633.831 845.842C623.008 854.752 611.884 861.986 600.542 867.226C589.244 870.79 577.787 872.057 566.253 870.921C554.804 868.061 543.29 862.96 531.747 855.831C520.263 847.681 508.703 838.166 497.084 827.733C485.447 817.558 473.954 807.627 462.587 798.349C451.12 790.484 439.741 783.823 428.467 778.492C417.037 775.004 405.675 772.83 394.428 771.826C383.037 772.343 371.769 773.561 360.67 775.187C349.458 777.533 338.445 779.684 327.654 781.319C316.835 782.84 306.27 783.367 296.011 782.729C285.764 781.387 275.839 778.635 266.273 774.475C256.76 769.38 247.631 762.891 238.901 755.108C230.279 746.505 222.07 736.782 214.333 726.141C206.725 714.903 199.598 702.971 192.99 690.519C186.54 677.757 180.631 664.675 175.303 651.425C170.166 638.076 165.627 624.671 161.712 611.346C158.008 598.025 154.961 584.824 152.569 571.817C150.394 558.876 148.886 546.117 148.076 533.617C147.449 521.156 147.485 508.914 148.233 496.932C149.101 484.984 150.634 473.255 152.84 461.784C155.096 450.317 157.933 439.36 161.279 428.896C164.614 418.419 168.408 408.432 172.625 398.932C176.759 389.389 181.267 380.317 186.113 371.714C190.815 363.038 195.845 354.794 201.154 346.99C206.274 339.048 211.676 331.485 217.339 324.261C222.805 316.839 228.549 309.683 234.551 302.73C240.375 295.493 246.487 288.376 252.89 281.34C259.148 273.912 265.728 266.469 272.619 258.999C279.419 251.065 286.569 243.069 294.057 235.011C301.501 226.529 309.305 218.036 317.451 209.579C325.59 200.887 334.074 192.38 342.881 184.193C351.684 176.067 360.807 168.47 370.215 161.572C379.595 155.069 389.255 149.511 399.147 145.033C408.99 141.243 419.055 138.692 429.312 137.439C439.514 136.974 449.895 137.806 460.448 139.898C470.946 142.579 481.618 146.298 492.459 150.956" stroke="url(#paint1_linear_336_6935)" stroke-width="2" stroke-linecap="round" stroke-dasharray="7 4"/>
<path opacity="0.28" d="M517.334 165.509C527.435 170.914 537.469 176.783 547.455 182.906C557.505 188.665 567.564 194.45 577.624 200.136C587.825 205.181 598.078 210.036 608.361 214.682C618.817 218.631 629.342 222.453 639.902 226.193C650.651 229.4 661.448 232.7 672.258 236.177C683.226 239.415 694.205 243.015 705.13 247.08C716.164 251.174 727.111 255.877 737.927 261.235C748.749 266.817 759.368 273.129 769.688 280.147C779.899 287.484 789.711 295.537 799.012 304.202C808.042 313.202 816.42 322.757 824.058 332.792C831.214 343.07 837.47 353.718 842.704 364.644C847.297 375.69 850.755 386.937 852.984 398.245C854.458 409.608 854.661 420.978 853.555 432.274C851.73 443.554 848.649 454.731 844.35 465.723C839.519 476.689 833.657 487.472 826.87 498.011C819.907 508.562 812.278 518.894 804.175 528.972C796.328 539.087 788.484 548.741 780.779 557.943C773.725 567.211 766.996 576.028 760.688 584.419C755.2 592.914 750.159 600.975 745.574 608.627C741.781 616.404 738.365 623.812 735.249 630.851C732.765 638.092 730.397 645.038 728.063 651.74C726.112 658.733 723.979 665.601 721.568 672.417C719.28 679.673 716.521 687.012 713.226 694.524C709.82 702.642 705.738 711.051 700.934 719.817C695.896 729.26 690.079 739.102 683.5 749.322C676.626 760.123 669.005 771.191 660.683 782.371C652.117 793.778 642.931 804.997 633.198 815.765C623.356 826.169 613.082 835.665 602.497 843.934C591.935 851.162 581.175 856.717 570.302 860.352C559.572 862.452 548.799 862.403 538.053 860.143C527.501 856.342 516.961 850.526 506.485 842.852C496.112 834.284 485.727 824.482 475.291 813.813C464.822 803.376 454.441 793.114 444.14 783.423C433.65 774.975 423.15 767.559 412.634 761.311C401.883 756.722 391.112 753.325 380.338 750.999C369.351 750.087 358.411 749.891 347.58 750.158C336.614 751.203 325.817 752.197 315.243 752.85C304.648 753.561 294.336 753.504 284.382 752.502C274.474 751.008 264.96 748.313 255.88 744.397C246.919 739.739 238.411 733.813 230.406 726.714C222.546 718.863 215.181 709.975 208.345 700.166C201.675 689.796 195.556 678.707 189.977 667.06C184.609 655.069 179.791 642.708 175.565 630.12C171.535 617.386 168.103 604.55 165.305 591.729C162.697 578.885 160.723 566.131 159.398 553.545C158.266 540.998 157.766 528.652 157.929 516.538C158.271 504.487 159.249 492.687 160.874 481.154C162.629 469.664 165.007 458.437 168.003 447.509C171.071 436.592 174.649 426.207 178.676 416.347C182.694 406.46 187.125 397.081 191.937 388.179C196.654 379.238 201.707 370.743 207.068 362.703C212.292 354.582 217.795 346.86 223.542 339.522C229.138 332.026 234.972 324.862 241.037 318.005C246.938 310.901 253.08 304.03 259.457 297.341C265.692 290.334 272.2 283.428 278.96 276.582C285.612 269.36 292.564 262.131 299.804 254.893C306.976 247.247 314.475 239.585 322.275 231.904C330.049 223.883 338.151 215.921 346.557 208.089C354.95 200.093 363.639 192.376 372.609 185.048C381.538 177.838 390.73 171.225 400.139 165.366C409.477 159.92 419.003 155.421 428.7 152.005C438.29 149.258 448.022 147.702 457.871 147.42C467.596 147.842 477.442 149.514 487.378 152.393C497.241 155.785 507.22 160.202 517.322 165.507" stroke="url(#paint2_linear_336_6935)" stroke-width="2" stroke-linecap="round" stroke-dasharray="2 9"/>
<path opacity="0.37" d="M540.838 181.947C550.172 187.909 559.446 194.326 568.666 200.995C577.977 207.356 587.316 213.761 596.681 220.109C606.199 225.859 615.809 231.477 625.471 236.906C635.334 241.696 645.288 246.355 655.287 250.922C665.484 254.978 675.722 259.08 685.96 263.296C696.357 267.243 706.728 271.487 717 276.075C727.355 280.631 737.562 285.697 747.568 291.287C757.54 297.034 767.219 303.386 776.527 310.351C785.683 317.549 794.37 325.352 802.473 333.698C810.283 342.296 817.395 351.386 823.712 360.887C829.563 370.564 834.501 380.562 838.43 390.797C841.772 401.12 844 411.583 845.087 422.078C845.49 432.589 844.701 443.072 842.712 453.448C840.076 463.786 836.311 473.983 831.443 483.968C826.118 493.917 819.842 503.65 812.736 513.142C805.481 522.627 797.631 531.883 789.328 540.903C781.254 549.973 773.169 558.624 765.22 566.876C757.828 575.234 750.728 583.227 743.985 590.855C737.962 598.651 732.337 606.116 727.106 613.275C722.6 620.64 718.42 627.721 714.503 634.57C711.176 641.671 707.962 648.595 704.788 655.389C701.973 662.512 699.001 669.601 695.802 676.692C692.719 684.236 689.224 691.881 685.251 699.701C681.185 708.068 676.523 716.685 671.215 725.555C665.684 734.994 659.443 744.684 652.524 754.594C645.344 764.902 637.49 775.292 629.009 785.61C620.342 795.976 611.123 805.972 601.466 815.37C591.76 824.291 581.712 832.218 571.443 838.887C561.283 844.521 551.018 848.531 540.742 850.711C530.692 851.49 520.713 850.293 510.842 847.064C501.223 842.49 491.719 836.087 482.326 827.994C473.081 819.151 463.843 809.162 454.59 798.363C445.292 787.77 436.042 777.312 426.806 767.311C417.328 758.38 407.784 750.343 398.134 743.329C388.174 737.761 378.111 733.256 367.976 729.73C357.56 727.519 347.119 726.008 336.727 724.974C326.164 724.735 315.725 724.56 305.512 724.22C295.25 724.046 285.284 723.318 275.688 721.862C266.163 720.081 257.074 717.323 248.465 713.558C240.013 709.184 232.069 703.734 224.68 697.231C217.475 690.099 210.845 681.994 204.788 673.042C198.944 663.568 193.68 653.386 189.017 642.64C184.564 631.561 180.716 620.07 177.457 608.302C174.434 596.371 171.999 584.288 170.188 572.176C168.576 560.018 167.582 547.917 167.215 535.951C167.033 523.999 167.47 512.218 168.52 500.695C169.754 489.198 171.576 477.954 174.015 467.007C176.584 456.1 179.728 445.454 183.444 435.134C187.233 424.829 191.476 415.05 196.122 405.8C200.762 396.522 205.764 387.726 211.091 379.415C216.344 371.038 221.905 363.106 227.716 355.593C233.425 347.969 239.371 340.712 245.543 333.805C251.575 326.73 257.826 319.929 264.296 313.402C270.619 306.616 277.166 300.018 283.932 293.579C290.588 286.827 297.492 280.154 304.635 273.544C311.688 266.588 319.016 259.64 326.618 252.713C334.157 245.432 341.995 238.165 350.122 230.96C358.205 223.493 366.577 216.152 375.221 209.007C383.805 201.787 392.658 194.902 401.725 188.491C410.721 182.229 419.916 176.628 429.263 171.79C438.477 167.39 447.828 163.939 457.256 161.539C466.534 159.775 475.869 159.158 485.245 159.76C494.469 161.009 503.729 163.439 513.022 167.01C522.214 171.052 531.474 176.066 540.826 181.944" stroke="url(#paint3_linear_336_6935)" stroke-width="2" stroke-linecap="round"/>
<path opacity="0.8" d="M562.725 200.167C571.266 206.607 579.761 213.47 588.189 220.609C596.723 227.471 605.287 234.405 613.882 241.322C622.67 247.706 631.54 253.984 640.493 260.108C649.653 265.649 658.914 271.066 668.237 276.398C677.759 281.223 687.322 286.086 696.867 291.007C706.567 295.615 716.214 300.45 725.732 305.557C735.319 310.555 744.715 315.946 753.844 321.774C762.92 327.65 771.654 334.044 779.954 340.914C788.081 347.94 795.678 355.467 802.657 363.443C809.319 371.584 815.26 380.133 820.395 389.025C825.075 398.029 828.844 407.295 831.653 416.732C833.883 426.219 835.083 435.806 835.191 445.397C834.689 454.966 833.09 464.473 830.369 473.86C827.12 483.171 822.807 492.341 817.507 501.289C811.814 510.174 805.27 518.852 797.96 527.294C790.529 535.715 782.539 543.935 774.127 551.929C765.913 559.995 757.689 567.697 749.564 575.057C741.924 582.557 734.522 589.767 727.418 596.703C720.937 603.833 714.803 610.743 709 617.441C703.819 624.383 698.928 631.165 694.261 637.795C690.106 644.739 686.052 651.597 682.04 658.403C678.334 665.567 674.52 672.752 670.482 680C666.555 687.664 662.281 695.46 657.565 703.409C652.794 711.817 647.491 720.418 641.602 729.182C635.547 738.387 628.878 747.72 621.598 757.121C614.118 766.772 606.061 776.333 597.468 785.661C588.762 794.892 579.611 803.623 570.103 811.634C560.634 819.117 550.922 825.529 541.087 830.686C531.45 834.849 521.791 837.452 512.219 838.335C502.948 837.959 493.819 835.762 484.875 831.733C476.243 826.538 467.772 819.681 459.467 811.321C451.327 802.302 443.243 792.248 435.152 781.422C426.995 770.781 418.867 760.214 410.72 750.025C402.293 740.757 393.728 732.231 385.026 724.576C375.954 718.201 366.707 712.737 357.346 708.151C347.628 704.757 337.846 702.025 328.064 699.781C318.037 698.338 308.136 697.035 298.401 695.69C288.599 694.62 279.09 693.161 269.954 691.168C260.878 689.013 252.243 686.087 244.117 682.334C236.153 678.153 228.739 673.053 221.916 667.059C215.308 660.55 209.308 653.179 203.914 645.046C198.783 636.45 194.253 627.194 190.357 617.391C186.706 607.274 183.663 596.742 181.259 585.908C179.07 574.906 177.499 563.723 176.549 552.476C175.811 541.163 175.673 529.856 176.145 518.662C176.797 507.469 178.055 496.439 179.911 485.607C181.908 474.817 184.492 464.261 187.649 453.986C190.925 443.746 194.746 433.792 199.113 424.124C203.547 414.489 208.376 405.353 213.568 396.734C218.747 388.071 224.265 379.879 230.062 372.14C235.802 364.334 241.811 356.926 248.054 349.906C254.19 342.766 260.563 335.964 267.131 329.462C273.582 322.785 280.243 316.362 287.099 310.149C293.832 303.695 300.79 297.396 307.953 291.233C315.006 284.782 322.308 278.404 329.82 272.098C337.268 265.48 344.976 258.897 352.915 252.357C360.82 245.536 368.973 238.788 377.376 232.151C385.733 225.321 394.331 218.676 403.155 212.315C411.9 205.917 420.844 199.937 429.953 194.454C438.945 189.194 448.069 184.588 457.271 180.774C466.307 177.4 475.396 174.952 484.498 173.522C493.401 172.688 502.293 172.955 511.16 174.37C519.833 176.369 528.479 179.478 537.106 183.672C545.613 188.28 554.137 193.804 562.713 200.164" stroke="url(#paint4_linear_336_6935)" stroke-width="2" stroke-linecap="round" stroke-dasharray="7 7"/>
<path opacity="0.76" d="M582.722 220.018C590.47 226.835 598.144 234.071 605.765 241.59C613.48 248.854 621.224 256.221 629.018 263.593C636.989 270.518 645.061 277.349 653.21 284.077C661.598 290.262 670.059 296.357 678.585 302.344C687.321 307.869 696.096 313.396 704.839 318.937C713.736 324.167 722.555 329.54 731.223 335.106C739.951 340.51 748.451 346.212 756.661 352.24C764.817 358.235 772.574 364.635 779.884 371.395C786.996 378.228 793.559 385.449 799.479 393.025C805.076 400.692 809.954 408.672 814.028 416.908C817.676 425.197 820.436 433.686 822.25 442.285C823.564 450.885 823.898 459.544 823.191 468.175C821.968 476.747 819.721 485.244 816.456 493.617C812.72 501.882 808.024 510.004 802.423 517.91C796.496 525.737 789.784 533.38 782.381 540.794C774.881 548.186 766.856 555.399 758.411 562.43C750.156 569.518 741.848 576.324 733.625 582.859C725.808 589.544 718.176 596.008 710.792 602.3C703.92 608.807 697.325 615.166 691.011 621.405C685.222 627.93 679.662 634.368 674.279 640.753C669.342 647.46 664.484 654.169 659.637 660.883C655.074 667.964 650.397 675.107 645.523 682.323C640.761 689.948 635.684 697.68 630.232 705.537C624.745 713.775 618.79 722.142 612.334 730.588C605.774 739.351 598.672 748.124 591.074 756.819C583.346 765.651 575.138 774.253 566.516 782.481C557.842 790.531 548.843 797.962 539.6 804.595C530.456 810.673 521.185 815.667 511.891 819.405C502.855 822.226 493.892 823.564 485.095 823.309C476.652 821.949 468.424 818.935 460.442 814.251C452.787 808.572 445.365 801.402 438.125 792.881C431.074 783.813 424.099 773.787 417.138 763.044C410.106 752.459 403.089 741.906 396.02 731.635C388.646 722.159 381.117 713.282 373.402 705.125C365.29 698.082 356.966 691.828 348.467 686.337C339.588 681.915 330.593 678.093 321.548 674.765C312.233 672.205 302.99 669.841 293.886 667.529C284.682 665.561 275.735 663.359 267.146 660.79C258.592 658.195 250.479 655.012 242.868 651.175C235.422 647.069 228.53 642.209 222.249 636.615C216.174 630.637 210.743 623.911 205.941 616.51C201.399 608.759 197.504 600.391 194.264 591.53C191.275 582.379 188.917 572.831 187.204 562.995C185.727 552.983 184.872 542.779 184.639 532.489C184.626 522.136 185.204 511.75 186.383 501.442C187.762 491.128 189.698 480.94 192.225 470.93C194.895 460.96 198.121 451.194 201.889 441.667C205.768 432.194 210.17 422.979 215.089 414.033C220.067 405.109 225.404 396.671 231.074 388.685C236.737 380.682 242.691 373.102 248.917 365.924C255.087 358.686 261.498 351.826 268.118 345.292C274.675 338.643 281.425 332.288 288.367 326.201C295.216 319.935 302.261 313.886 309.484 308.033C316.62 301.952 323.955 296.009 331.485 290.177C338.937 284.094 346.608 278.091 354.488 272.165C362.294 265.976 370.34 259.848 378.602 253.813C386.804 247.546 395.237 241.403 403.871 235.427C412.442 229.335 421.206 223.471 430.134 217.944C438.96 212.445 447.936 207.395 456.989 202.886C465.902 198.614 474.879 195.022 483.868 192.223C492.657 189.822 501.422 188.345 510.117 187.841C518.601 187.877 527.002 188.958 535.3 191.105C543.402 193.784 551.414 197.494 559.356 202.215C567.15 207.302 574.925 213.262 582.71 220.014" stroke="url(#paint5_linear_336_6935)" stroke-width="2" stroke-linecap="round" stroke-dasharray="9 8"/>
<path opacity="0.14" d="M600.562 241.292C607.509 248.407 614.368 255.929 621.15 263.713C628.038 271.289 634.927 278.986 641.855 286.715C648.982 294.06 656.19 301.347 663.466 308.543C670.982 315.266 678.572 321.914 686.208 328.461C694.08 334.573 701.951 340.658 709.794 346.744C717.801 352.498 725.7 358.34 733.428 364.293C741.241 370.054 748.792 376.009 756.038 382.191C763.225 388.293 770.01 394.659 776.304 401.305C782.442 407.934 788.008 414.847 792.921 422.006C797.559 429.177 801.473 436.575 804.589 444.155C807.334 451.717 809.219 459.419 810.212 467.179C810.752 474.897 810.37 482.619 809.038 490.291C807.244 497.877 804.504 505.375 800.83 512.723C796.755 519.972 791.819 527.062 786.042 533.949C780.002 540.759 773.232 547.389 765.82 553.824C758.335 560.24 750.354 566.5 741.963 572.617C733.719 578.799 725.427 584.757 717.16 590.51C709.236 596.431 701.433 602.203 693.818 607.858C686.637 613.748 679.647 619.576 672.875 625.34C666.535 631.406 660.365 637.455 654.334 643.525C648.674 649.911 643.055 656.356 637.444 662.845C632.062 669.695 626.567 676.615 620.905 683.635C615.346 690.999 609.509 698.468 603.361 706C597.198 713.863 590.651 721.769 583.69 729.664C576.672 737.777 569.219 745.802 561.362 753.646C553.468 761.513 545.196 769.048 536.623 776.109C528.079 782.927 519.319 789.053 510.432 794.351C501.705 799.085 492.961 802.745 484.3 805.198C475.925 806.807 467.721 807.046 459.76 805.814C452.163 803.623 444.853 799.926 437.83 794.75C431.159 788.732 424.737 781.38 418.553 772.811C412.555 763.798 406.642 753.904 400.763 743.336C394.818 732.914 388.883 722.47 382.868 712.233C376.554 702.659 370.062 693.572 363.373 685.072C356.27 677.522 348.924 670.632 341.389 664.401C333.43 659.114 325.332 654.373 317.148 650.094C308.668 646.532 300.215 643.213 291.871 640.01C283.377 637.199 275.127 634.269 267.182 631.11C259.245 628.023 251.739 624.522 244.704 620.543C237.806 616.41 231.453 611.698 225.704 606.393C220.166 600.831 215.243 594.654 210.992 587.914C206.972 580.9 203.61 573.358 200.919 565.375C198.474 557.177 196.686 548.6 195.548 539.748C194.648 530.76 194.364 521.575 194.725 512.276C195.289 502.92 196.447 493.533 198.202 484.172C200.139 474.826 202.637 465.556 205.703 456.435C208.914 447.351 212.668 438.444 216.932 429.753C221.314 421.102 226.191 412.674 231.563 404.495C236.991 396.342 242.756 388.611 248.82 381.299C254.888 373.975 261.225 367.015 267.81 360.437C274.347 353.783 281.113 347.462 288.083 341.437C294.978 335.309 302.088 329.427 309.361 323.781C316.572 317.972 323.968 312.353 331.53 306.905C339.024 301.25 346.704 295.72 354.572 290.314C362.369 284.674 370.364 279.136 378.55 273.685C386.682 268.02 395.008 262.469 403.514 257.026C411.958 251.421 420.585 245.979 429.371 240.757C438.081 235.46 446.93 230.456 455.883 225.823C464.712 221.255 473.604 217.176 482.53 213.653C491.295 210.368 500.032 207.773 508.723 205.942C517.182 204.506 525.566 203.929 533.811 204.289C541.811 205.134 549.685 206.949 557.395 209.758C564.882 213.034 572.236 217.265 579.468 222.427C586.548 227.926 593.562 234.234 600.551 241.287" stroke="url(#paint6_linear_336_6935)" stroke-width="2" stroke-linecap="round" stroke-dasharray="7 10"/>
<path opacity="0.64" d="M616.009 263.734C622.158 271.059 628.176 278.761 634.114 286.714C640.15 294.51 646.182 302.444 652.225 310.411C658.459 318.047 664.76 325.664 671.107 333.221C677.709 340.356 684.352 347.415 691.036 354.397C697.947 360.985 704.859 367.516 711.711 374.03C718.745 380.207 725.661 386.419 732.394 392.687C739.211 398.72 745.776 404.883 752.007 411.174C758.22 417.315 764.018 423.654 769.333 430.138C774.507 436.546 779.112 443.153 783.095 449.9C788.345 460.016 794.641 480.702 795.51 491.106C794.948 501.384 788.872 521.446 783.378 531.086C779.109 537.355 774.03 543.467 768.183 549.391C762.13 555.231 755.403 560.919 748.069 566.434C740.692 571.926 732.817 577.304 724.542 582.565C716.392 587.907 708.159 593.065 699.902 598.084C691.933 603.272 684.038 608.373 676.233 613.411C668.808 618.681 661.509 623.95 654.337 629.216C647.536 634.78 640.845 640.376 634.235 646.029C627.93 651.999 621.639 658.048 615.335 664.173C609.23 670.63 603.013 677.165 596.644 683.774C590.377 690.689 583.876 697.674 577.109 704.684C570.38 711.938 563.319 719.182 555.953 726.345C548.571 733.64 540.87 740.749 532.873 747.602C524.899 754.41 516.663 760.797 508.249 766.655C499.932 772.23 491.515 777.078 483.074 781.088C474.852 784.559 466.712 786.995 458.727 788.283C451.074 788.826 443.667 788.103 436.554 786.054C429.83 783.178 423.427 778.977 417.356 773.43C411.637 767.204 406.185 759.778 400.991 751.274C395.985 742.422 391.085 732.747 386.243 722.444C381.331 712.272 376.427 702.034 371.44 691.948C366.173 682.41 360.718 673.247 355.056 664.547C348.989 656.651 342.675 649.293 336.146 642.491C329.2 636.515 322.08 631.019 314.859 625.945C307.31 621.533 299.753 617.37 292.274 613.374C284.617 609.787 277.154 606.177 269.964 602.45C262.743 598.886 255.91 595.042 249.522 590.864C243.23 586.639 237.463 581.983 232.267 576.892C227.257 571.636 222.858 565.896 219.1 559.718C215.568 553.353 212.678 546.55 210.461 539.381C208.486 532.049 207.16 524.394 206.481 516.499C206.032 508.489 206.211 500.3 207.022 492.003C208.027 483.657 209.64 475.274 211.832 466.908C214.205 458.542 217.134 450.237 220.616 442.048C224.24 433.907 228.384 425.892 233.041 418.068C237.801 410.287 243.046 402.696 248.765 395.318C254.555 387.964 260.648 380.983 267.033 374.37C273.413 367.74 280.059 361.448 286.927 355.472C293.769 349.44 300.833 343.696 308.084 338.206C315.287 332.62 322.677 327.261 330.243 322.095C337.752 316.8 345.439 311.67 353.297 306.688C361.094 301.534 369.058 296.512 377.201 291.6C385.283 286.515 393.539 281.524 401.951 276.658C410.312 271.626 418.847 266.714 427.514 261.972C436.118 257.112 444.849 252.46 453.699 248.055C462.434 243.629 471.269 239.537 480.137 235.827C488.869 232.239 497.604 229.115 506.304 226.574C514.805 224.276 523.241 222.642 531.561 221.744C539.628 221.214 547.555 221.49 555.29 222.642C562.77 224.217 570.064 226.685 577.153 230.08C584.015 233.869 590.696 238.542 597.209 244.074C603.569 249.89 609.819 256.457 616.004 263.717" stroke="url(#paint7_linear_336_6935)" stroke-width="2" stroke-linecap="round" stroke-dasharray="1 7"/>
<path opacity="0.78" d="M628.847 287.037C634.196 294.49 639.395 302.271 644.483 310.318C649.665 318.219 654.822 326.251 659.96 334.358C665.283 342.174 670.65 349.989 676.043 357.762C681.678 365.177 687.345 372.54 693.028 379.81C698.934 386.726 704.819 393.585 710.644 400.376C716.653 406.877 722.532 413.352 728.233 419.832C734.02 426.061 739.553 432.346 744.775 438.684C749.983 444.837 754.789 451.072 759.132 457.393C765.216 466.726 774.161 485.599 776.802 495.072C778.293 504.402 776.94 522.724 774.017 531.609C769.828 540.189 757.121 556.448 748.745 564.085C742.757 569.032 736.15 573.851 728.965 578.522C721.738 583.168 714.044 587.722 705.937 592.19C697.929 596.734 689.804 601.161 681.629 605.484C673.688 609.969 665.745 614.409 657.842 618.831C650.243 623.489 642.703 628.169 635.235 632.895C628.068 637.884 620.937 642.955 613.859 648.103C607.024 653.535 600.174 659.06 593.288 664.665C586.594 670.566 579.765 676.543 572.831 682.569C565.982 688.854 558.952 695.17 551.72 701.46C544.534 707.954 537.114 714.358 529.471 720.607C521.857 726.947 514.036 733.039 506.015 738.801C498.088 744.462 490.016 749.681 481.866 754.311C473.883 758.653 465.89 762.273 457.98 765.072C446.585 768.028 425.394 767.82 415.836 764.325C409.969 760.92 404.443 756.33 399.296 750.565C394.467 744.228 389.947 736.848 385.696 728.514C381.609 719.876 377.665 710.526 373.799 700.569C369.86 690.727 365.93 680.802 361.937 670.954C357.67 661.561 353.216 652.442 348.585 643.693C343.54 635.601 338.266 627.962 332.787 620.762C326.887 614.273 320.802 608.192 314.607 602.493C308.064 597.39 301.495 592.535 294.979 587.873C288.244 583.626 281.661 579.417 275.312 575.182C265.858 569.055 248.953 555.895 241.793 548.609C235.392 540.884 225.913 523.569 222.902 514.037C220.858 504.08 220.268 482.953 221.698 472.001C223.044 464.641 224.97 457.24 227.494 449.838C230.166 442.457 233.409 435.117 237.192 427.87C241.092 420.668 245.518 413.58 250.451 406.637C255.473 399.736 260.977 392.995 266.951 386.434C272.977 379.906 279.308 373.702 285.914 367.803C292.529 361.911 299.394 356.293 306.485 350.964C313.537 345.581 320.824 340.448 328.294 335.534C335.71 330.542 343.334 325.754 351.112 321.136C358.846 316.404 366.758 311.828 374.811 307.398C382.822 302.827 391.004 298.377 399.333 294.065C407.6 289.596 416.021 285.254 424.575 281.069C433.071 276.746 441.694 272.59 450.421 268.617C459.061 264.574 467.798 260.768 476.58 257.238C485.25 253.724 493.955 250.568 502.636 247.82C511.162 245.178 519.632 243.04 528.019 241.448C536.183 240.094 544.221 239.375 552.089 239.364C559.687 239.665 567.109 240.728 574.289 242.588C581.205 244.819 587.888 247.881 594.337 251.771C600.549 255.993 606.54 261.023 612.324 266.841C617.964 272.888 623.456 279.63 628.844 287.02" stroke="url(#paint8_linear_336_6935)" stroke-width="2" stroke-linecap="round" stroke-dasharray="5 9"/>
<path opacity="0.76" d="M638.9 310.845C643.465 318.323 647.849 326.11 652.091 334.131C656.438 342.03 660.72 350.08 664.959 358.189C669.382 366.068 673.808 373.964 678.229 381.825C682.894 389.376 687.56 396.882 692.214 404.303C697.094 411.416 701.936 418.455 706.697 425.418C711.645 432.106 716.469 438.734 721.1 445.312C725.845 451.651 730.348 457.966 734.543 464.284C740.669 473.447 750.711 491.552 754.377 500.48C757.225 509.189 759.4 526.233 758.581 534.476C756.66 542.428 748.798 557.515 742.863 564.579C735.927 571.319 718.599 583.922 708.389 589.828C701.388 593.703 693.918 597.51 686.024 601.248C678.229 605.059 670.27 608.781 662.222 612.437C654.355 616.241 646.444 620.044 638.516 623.849C630.831 627.864 623.146 631.941 615.477 636.059C608.049 640.432 600.617 644.893 593.188 649.433C585.966 654.233 578.696 659.12 571.392 664.073C564.232 669.286 556.975 674.55 549.625 679.836C542.369 685.346 534.969 690.825 527.437 696.254C519.97 701.823 512.342 707.257 504.58 712.5C496.901 717.775 489.099 722.76 481.215 727.378C473.455 731.889 465.664 735.903 457.893 739.349C450.324 742.5 442.844 744.968 435.535 746.643C425.118 748.049 406.201 745.326 397.89 740.983C392.849 737.165 388.182 732.32 383.894 726.44C379.918 720.115 376.26 712.861 372.88 704.771C369.65 696.455 366.585 687.48 363.611 677.944C360.574 668.515 357.563 658.968 354.506 649.462C351.178 640.324 347.704 631.385 344.059 622.718C340.031 614.594 335.798 606.81 331.356 599.393C326.521 592.573 321.498 586.09 316.368 579.941C310.885 574.313 305.352 568.939 299.848 563.754C291.288 556.61 274.884 542.927 267.373 536.082C260.27 529.245 248.551 514.603 244.135 506.715C240.537 498.526 236.629 480.987 236.369 471.735C236.983 462.315 241.473 443.016 245.313 433.308C248.187 426.869 251.62 420.458 255.597 414.142C259.668 407.864 264.262 401.665 269.362 395.61C274.53 389.589 280.187 383.713 286.306 377.979C292.475 372.282 298.942 366.865 305.677 361.707C312.423 356.557 319.417 351.651 326.625 346.994C333.826 342.286 341.228 337.802 348.819 333.519C356.373 329.163 364.123 324.997 372.03 320.992C379.894 316.88 387.915 312.928 396.09 309.121C404.219 305.188 412.496 301.409 420.889 297.763C429.246 293.998 437.717 290.393 446.289 286.939C454.787 283.4 463.382 280.04 472.039 276.909C480.609 273.729 489.211 270.818 497.823 268.204C506.297 265.612 514.757 263.392 523.14 261.59C531.353 259.892 539.457 258.696 547.421 258.023C555.162 257.57 562.729 257.707 570.077 258.495C580.584 260.46 599.934 268.415 608.737 274.482C614.279 279.052 619.582 284.364 624.647 290.373C629.573 296.571 634.306 303.407 638.898 310.828" stroke="url(#paint9_linear_336_6935)" stroke-width="2" stroke-linecap="round" stroke-dasharray="2 4"/>
<path opacity="0.53" d="M646.069 334.786C649.857 342.201 653.45 349.904 656.882 357.794C660.396 365.607 663.833 373.549 667.197 381.558C674.435 396.976 681.613 412.408 688.697 427.532C696.612 441.584 704.251 455.352 711.291 468.739C718.806 481.188 725.256 493.426 730.229 505.363C735.049 516.586 737.919 527.59 738.519 538.2C738.476 548.197 735.888 557.76 730.645 566.715C724.658 575.101 716.078 582.9 705.032 590.022C699.364 593.469 693.135 596.794 686.398 599.994C679.642 603.178 672.435 606.302 664.813 609.363C657.257 612.498 649.521 615.56 641.659 618.579C633.948 621.744 626.132 624.9 618.275 628.085C603.114 635.04 587.763 642.238 572.336 649.696C557.598 658.095 542.563 666.728 527.279 675.407C512.451 684.766 497.187 693.802 481.663 702.115C466.628 710.407 451.503 717.263 436.697 722.109C422.849 725.925 409.779 726.924 397.956 724.614C387.572 720.519 378.663 712.807 371.384 701.449C368.197 695.209 365.315 688.176 362.739 680.4C360.29 672.457 358.021 663.923 355.869 654.889C353.661 645.922 351.488 636.837 349.287 627.747C346.85 618.972 344.291 610.304 341.59 601.839C335.092 586.274 327.858 571.783 320.056 558.491C310.912 546.986 301.697 536.23 292.916 525.99C283.602 516.72 275.405 507.316 268.802 497.618C262.445 488.162 258.085 478.091 255.948 467.5C254.413 456.904 255.175 445.835 258.274 434.586C261.946 423.388 267.829 412.178 275.858 401.241C280.022 395.835 284.692 390.52 289.843 385.323C295.067 380.155 300.764 375.115 306.935 370.203C313.136 365.332 319.643 360.691 326.415 356.29C333.187 351.89 340.204 347.714 347.438 343.74C361.857 335.716 377.113 328.421 392.982 321.793C408.696 314.872 425.033 308.513 441.777 302.759C458.295 296.7 475.182 291.31 492.181 286.778C508.758 282.209 525.28 278.807 541.416 276.906C556.803 275.484 571.542 276.003 585.328 278.802C598.08 282.55 609.753 288.859 620.197 297.829C625.072 302.674 629.685 308.169 634.032 314.281C638.244 320.552 642.248 327.39 646.068 334.768" stroke="url(#paint10_linear_336_6935)" stroke-width="2" stroke-linecap="round" stroke-dasharray="5 10"/>
<path opacity="0.88" d="M650.289 358.447C656.384 372.985 661.755 388.351 666.667 404.06C672.166 419.172 677.491 434.302 682.613 449.129C688.518 463.051 694.107 476.645 699.107 489.765C704.596 502.018 709.113 513.888 712.301 525.265C715.473 535.92 716.898 546.138 716.321 555.774C715.302 564.787 712.037 573.203 706.404 580.919C700.243 588.1 691.765 594.632 681.033 600.489C670.062 606.079 657.127 611.26 642.436 616.119C628.001 621.228 612.832 626.17 597.271 631.106C582.3 636.726 566.983 642.541 551.519 648.54C536.639 655.353 521.454 662.282 506.112 669.126C491.246 676.522 476.149 683.468 461.053 689.603C446.557 695.654 432.265 700.282 418.591 702.995C405.928 704.819 394.259 704.096 383.983 700.475C375.062 695.42 367.678 687.247 361.92 675.973C357.163 663.609 353.531 648.689 350.698 631.704C347.64 614.93 344.598 597.93 341.237 581.342C336.6 566.144 331.344 551.754 325.608 538.344C318.581 526.429 311.455 515.23 304.658 504.594C297.242 494.922 290.76 485.337 285.629 475.766C280.571 466.559 277.28 457.083 275.991 447.395C275.139 437.825 276.421 428.034 279.881 418.221C283.795 408.543 289.819 398.932 297.904 389.632C306.303 380.503 316.624 371.722 328.806 363.471C341.102 355.333 354.566 348.028 368.874 341.517C383.147 334.937 398.22 329.038 413.856 323.778C429.36 318.301 445.418 313.42 461.797 309.164C477.912 304.701 494.287 300.976 510.618 298.141C526.488 295.336 542.142 293.719 557.262 293.528C571.601 293.78 585.183 295.826 597.686 299.922C609.203 304.812 619.557 311.945 628.618 321.417C636.858 331.638 644.056 344.031 650.289 358.429" stroke="url(#paint11_linear_336_6935)" stroke-width="2" stroke-linecap="round" stroke-dasharray="2 10"/>
<path opacity="0.37" d="M651.578 381.411C656.248 395.499 660.143 410.273 663.489 425.32C667.352 439.909 670.917 454.497 674.196 468.78C678.21 482.313 681.836 495.482 684.91 508.102C688.485 519.967 691.174 531.315 692.687 542.041C694.303 552.067 694.401 561.511 692.736 570.229C690.829 578.338 686.955 585.75 681.025 592.384C674.742 598.506 666.403 603.962 656.056 608.712C645.54 613.232 633.216 617.311 619.229 621.036C605.429 624.99 590.863 628.767 575.838 632.472C561.266 636.781 546.278 641.178 531.109 645.669C516.424 650.835 501.486 655.977 486.49 660.941C471.973 666.336 457.419 671.205 443.092 675.215C429.417 679.124 416.209 681.665 403.824 682.457C392.461 682.526 382.228 680.358 373.467 675.687C365.951 669.912 359.976 661.49 355.592 650.458C352.086 638.615 349.699 624.596 348.174 608.761C346.445 593.105 344.83 577.169 343.032 561.509C340.096 546.907 336.704 532.905 332.905 519.708C327.906 507.722 322.826 496.368 317.986 485.64C312.457 475.769 307.706 466.164 304.085 456.794C300.394 447.864 298.222 438.922 297.812 430.018C297.675 421.348 299.46 412.673 303.228 404.136C307.35 395.778 313.435 387.609 321.454 379.802C329.732 372.176 339.837 364.942 351.737 358.209C363.734 351.604 376.845 345.757 390.777 340.65C404.658 335.504 419.312 331.008 434.477 327.146C449.502 323.144 464.997 319.747 480.714 317.009C496.158 314.15 511.731 312.068 527.118 310.873C542.046 309.755 556.617 309.777 570.504 311.145C583.66 312.897 595.94 316.28 607.063 321.462C617.282 327.279 626.301 335.048 633.974 344.831C640.923 355.189 646.771 367.428 651.578 381.411Z" stroke="url(#paint12_linear_336_6935)" stroke-width="2" stroke-linecap="round" stroke-dasharray="5 11"/>
<path opacity="0.92" d="M650.023 403.273C653.386 416.754 655.905 430.773 657.809 444.984C660.145 458.848 662.109 472.671 663.71 486.183C665.97 499.096 667.799 511.609 669.107 523.544C670.916 534.815 671.912 545.513 671.915 555.482C672.071 564.821 670.938 573.47 668.33 581.31C665.602 588.589 661.209 595.095 655.028 600.766C648.659 605.991 640.486 610.503 630.562 614.292C620.523 617.889 608.859 621.009 595.633 623.711C582.564 626.618 568.738 629.268 554.445 631.794C540.481 634.829 526.116 637.829 511.552 640.812C497.407 644.342 483.077 647.751 468.802 650.869C454.993 654.329 441.312 657.209 428.061 659.231C415.47 661.182 403.522 661.863 392.552 660.987C382.536 659.55 373.749 656.193 366.461 650.738C360.266 644.462 355.583 635.985 352.442 625.346C350.028 614.136 348.737 601.07 348.328 586.458C347.74 571.999 347.378 557.227 346.957 542.64C345.543 528.846 343.825 515.486 341.811 502.772C338.721 491.024 335.555 479.846 332.573 469.273C328.911 459.454 325.86 450.006 323.734 440.934C321.424 432.331 320.398 423.923 320.858 415.774C321.477 407.891 323.776 400.195 327.829 392.801C332.145 385.608 338.232 378.72 346.091 372.259C354.155 365.983 363.926 360.153 375.367 354.859C386.9 349.665 399.47 345.215 412.806 341.481C426.092 337.723 440.076 334.611 454.512 332.131C468.785 329.558 483.467 327.619 498.252 326.362C512.747 325.032 527.263 324.478 541.478 324.807C555.224 325.233 568.512 326.723 581.022 329.447C592.848 332.494 603.727 336.981 613.428 343.008C622.305 349.542 629.978 357.746 636.295 367.626C641.981 377.958 646.553 389.875 650.023 403.273Z" stroke="url(#paint13_linear_336_6935)" stroke-width="2" stroke-linecap="round"/>
<path opacity="0.72" d="M645.786 423.652C647.932 436.384 649.225 449.503 649.847 462.724C650.833 475.691 651.358 488.564 651.495 501.116C652.174 513.193 652.42 524.861 652.167 535.929C652.374 546.441 651.879 556.339 650.527 565.473C649.402 574.059 647.177 581.894 643.721 588.873C640.268 595.363 635.406 601.041 629.064 605.863C622.615 610.3 614.655 613.991 605.163 616.951C595.634 619.743 584.647 622.006 572.265 623.788C559.998 625.744 547.049 627.383 533.65 628.788C520.519 630.621 507.009 632.305 493.366 633.856C480.06 635.849 466.666 637.619 453.437 639.014C440.649 640.695 428.136 641.765 416.188 642.034C404.865 642.244 394.324 641.333 384.831 639.08C376.221 636.421 368.856 632.157 362.948 626.163C357.986 619.588 354.467 611.218 352.409 601.101C350.94 590.58 350.583 578.542 351.116 565.192C351.485 551.951 352.183 538.448 352.932 525.044C352.858 512.229 352.605 499.723 352.172 487.75C350.779 476.515 349.373 465.775 348.097 455.613C346.177 446.085 344.747 436.986 344.053 428.375C343.094 420.191 343.193 412.356 344.538 404.91C345.92 397.765 348.725 390.964 353.057 384.574C357.544 378.42 363.596 372.666 371.242 367.425C379.031 362.355 388.355 357.777 399.212 353.798C410.137 349.921 421.992 346.76 434.521 344.305C447.016 341.844 460.116 340.031 473.572 338.87C486.882 337.642 500.469 337.059 514.077 337.156C527.405 337.231 540.641 338.062 553.49 339.738C565.867 341.505 577.714 344.257 588.742 348.096C599.122 352.185 608.554 357.522 616.801 364.172C624.332 371.192 630.66 379.612 635.701 389.414C640.176 399.545 643.537 410.987 645.786 423.652Z" stroke="url(#paint14_linear_336_6935)" stroke-width="2" stroke-linecap="round" stroke-dasharray="6 11"/>
<path opacity="0.71" d="M639.091 442.201C640.163 454.047 640.36 466.145 639.888 478.238C639.706 490.167 639.004 501.951 637.882 513.391C637.211 524.478 636.11 535.129 634.533 545.185C633.359 554.801 631.575 563.786 629.084 571.994C626.825 579.76 623.678 586.753 619.523 592.886C615.436 598.613 610.199 603.53 603.76 607.568C597.289 611.299 589.556 614.27 580.549 616.488C571.53 618.585 561.263 620.098 549.799 621.068C538.42 622.189 526.452 622.892 514.132 623.298C502.006 624.047 489.581 624.541 477.098 624.784C464.889 625.411 452.702 625.7 440.776 625.6C429.247 625.702 418.115 625.227 407.63 624.019C397.734 622.776 388.652 620.566 380.678 617.236C373.441 613.632 367.436 608.725 362.831 602.435C358.996 595.755 356.509 587.649 355.377 578.158C354.728 568.395 355.121 557.393 356.423 545.342C357.579 533.359 359.138 521.163 360.85 509.036C361.876 497.325 362.87 485.857 363.78 474.819C363.878 464.323 363.992 454.257 364.25 444.747C363.892 435.725 363.926 427.175 364.549 419.142C365.455 407.894 371.994 388.167 378.221 379.735C382.873 374.482 388.874 369.743 396.223 365.587C403.685 361.581 412.493 358.132 422.641 355.328C432.843 352.621 443.832 350.631 455.395 349.335C466.921 348.047 478.931 347.419 491.206 347.435C503.346 347.413 515.65 348.035 527.883 349.333C539.856 350.622 551.628 352.633 562.947 355.422C573.845 358.293 584.152 362.048 593.617 366.745C602.523 371.63 610.466 377.566 617.276 384.58C623.475 391.866 628.528 400.281 632.333 409.822C635.681 419.578 637.933 430.405 639.091 442.201Z" stroke="url(#paint15_linear_336_6935)" stroke-width="2" stroke-linecap="round" stroke-dasharray="10 1"/>
<path opacity="0.54" d="M630.217 458.623C630.353 469.471 629.637 480.449 628.25 491.335C627.092 502.1 625.403 512.694 623.264 522.915C621.505 532.873 619.298 542.403 616.645 551.339C614.358 559.952 611.539 567.931 608.117 575.158C602.996 585.101 589.005 600.502 579.795 605.904C573.362 608.994 565.898 611.318 557.408 612.887C548.936 614.38 539.441 615.238 528.949 615.492C518.527 615.89 507.651 615.794 496.535 615.334C485.557 615.136 474.394 614.603 463.258 613.757C452.354 613.197 441.568 612.253 431.122 610.903C421.03 609.726 411.396 607.991 402.466 605.609C394.042 603.232 386.473 600.041 379.966 595.951C374.073 591.692 369.355 586.399 365.911 580.025C363.084 573.427 361.494 565.698 361.149 556.913C361.161 547.96 362.174 538.042 364.066 527.27C365.846 516.551 368.065 505.693 370.519 494.9C372.427 484.394 374.409 474.071 376.404 464.123C377.73 454.547 379.136 445.37 380.664 436.68C381.655 428.382 382.966 420.531 384.735 413.241C387.255 402.99 395.915 385.519 402.565 378.343C407.372 373.951 413.269 370.106 420.288 366.902C427.388 363.837 435.61 361.385 444.953 359.603C454.328 357.914 464.36 356.951 474.808 356.664C485.222 356.392 496.003 356.779 506.942 357.786C517.755 358.786 528.625 360.426 539.345 362.696C549.816 364.962 560.019 367.928 569.723 371.567C579.067 375.28 587.782 379.77 595.676 385.03C603.083 390.44 609.577 396.718 615.001 403.845C619.919 411.17 623.765 419.4 626.435 428.486C628.744 437.731 630.01 447.797 630.217 458.623Z" stroke="url(#paint16_linear_336_6935)" stroke-width="2" stroke-linecap="round" stroke-dasharray="8 1"/>
<path opacity="0.21" d="M619.495 472.658C618.836 482.428 617.39 492.214 615.311 501.837C613.384 511.374 610.93 520.68 608.04 529.614C605.426 538.374 602.392 546.703 598.962 554.458C595.825 561.98 592.217 568.906 588.132 575.117C582.043 583.686 567.011 596.697 557.819 601.078C551.492 603.547 544.38 605.291 536.473 606.287C528.587 607.234 519.904 607.527 510.447 607.196C501.046 606.975 491.346 606.223 481.523 605.056C471.804 604.086 462.015 602.734 452.348 601.016C442.871 599.515 433.585 597.622 424.72 595.314C416.135 593.147 408.071 590.486 400.712 587.259C390.714 582.151 376.132 568.314 371.945 559.351C370.001 552.978 369.18 545.757 369.467 537.747C370.011 529.649 371.493 520.802 373.809 511.311C376.038 501.868 378.729 492.324 381.715 482.889C384.27 473.637 387.008 464.55 389.805 455.785C392.097 447.283 394.491 439.112 397.03 431.413C400.291 420.482 408.039 401.449 413.017 393.46C418.461 386.321 433.184 375.23 442.698 371.371C449.364 369.126 456.94 367.519 465.413 366.62C473.914 365.79 482.869 365.682 492.117 366.226C501.336 366.796 510.79 368.001 520.278 369.802C529.665 371.616 539.02 374.025 548.143 377.026C557.067 380.026 565.651 383.649 573.716 387.87C581.482 392.142 588.63 397.066 594.983 402.631C600.939 408.298 606.051 414.651 610.167 421.671C613.883 428.82 616.623 436.655 618.292 445.132C619.668 453.711 620.074 462.92 619.495 472.658Z" stroke="url(#paint17_linear_336_6935)" stroke-width="2" stroke-linecap="round" stroke-dasharray="2 3"/>
<path opacity="0.31" d="M607.274 484.17C604.751 501.412 599.544 518.199 592.587 533.554C586.471 548.455 578.717 561.58 569.57 572.132C561.142 581.969 550.752 589.189 538.392 593.357C526.24 597.073 511.678 598.143 494.918 596.465C478.268 595.139 461.152 591.776 444.72 586.962C428.841 582.802 414.254 576.949 402.254 569.452C391.525 562.141 384.019 552.575 380.616 540.765C378.555 528.705 380.189 514.205 385.355 497.742C390.206 481.389 396.651 465.095 403.721 449.898C409.195 435.339 415.396 422.077 422.409 410.847C428.431 400.287 436.218 391.669 446.099 385.549C455.849 379.922 468.276 376.636 483.333 376.199C498.47 375.982 514.687 378.488 530.805 383.206C546.568 387.945 561.704 394.982 574.893 403.981C587.126 413.096 596.83 424.456 603.017 437.749C608.018 451.334 609.546 466.993 607.274 484.17Z" stroke="url(#paint18_linear_336_6935)" stroke-width="2" stroke-linecap="round" stroke-dasharray="9 4"/>
<path opacity="0.26" d="M593.933 493.031C590.518 507.901 584.71 522.068 577.298 534.803C570.48 547.258 562.18 558.048 552.792 566.525C543.942 574.545 533.618 580.228 521.968 583.185C510.505 585.856 497.369 586.098 482.848 583.741C468.405 581.657 454.022 577.571 440.622 572.063C427.603 567.048 416.044 560.487 406.929 552.578C398.715 544.901 393.387 535.493 391.572 524.55C390.661 513.521 392.949 500.802 398.363 486.791C403.526 472.839 410.308 459.151 417.832 446.517C424.211 434.241 431.358 423.178 439.136 413.941C446.12 405.144 454.399 398.195 464.074 393.576C473.58 389.313 484.971 387.304 498.113 387.998C511.309 388.869 524.957 392.254 538.137 397.636C551.07 403.039 563.101 410.477 573.247 419.535C582.687 428.659 589.8 439.571 593.829 451.854C597.011 464.299 597.143 478.208 593.933 493.031Z" stroke="url(#paint19_linear_336_6935)" stroke-width="2" stroke-linecap="round"/>
<path opacity="0.45" d="M579.861 499.233C575.921 511.683 569.911 523.294 562.529 533.529C555.509 543.606 547.215 552.141 538.085 558.676C529.337 564.95 519.509 569.176 508.877 571.061C498.381 572.785 486.835 572.346 474.587 569.572C462.371 566.994 450.657 562.586 440.118 556.876C429.825 551.526 421.046 544.808 414.462 537.072C408.482 529.525 404.985 520.727 404.41 510.932C404.398 501.145 407.09 490.246 412.456 478.589C417.64 466.962 424.371 455.796 431.862 445.618C438.586 435.639 446.076 426.76 454.054 419.512C461.449 412.521 469.751 407.194 478.904 403.963C487.896 400.971 498.096 400.043 509.288 401.539C520.518 403.191 531.657 407.056 542.062 412.637C552.298 418.246 561.477 425.586 568.89 434.2C575.821 442.841 580.677 452.854 582.91 463.792C584.57 474.81 583.64 486.797 579.861 499.233Z" stroke="url(#paint20_linear_336_6935)" stroke-width="2" stroke-linecap="round" stroke-dasharray="10 4"/>
<path opacity="0.14" d="M565.426 502.795C561.324 512.868 555.518 522.03 548.571 529.934C541.839 537.744 534.058 544.213 525.665 548.981C517.495 553.617 508.578 556.55 499.262 557.54C490.025 558.449 480.227 557.514 470.247 554.579C460.28 551.779 451.099 547.411 443.143 541.941C435.344 536.706 428.992 530.362 424.537 523.24C420.445 516.296 418.413 508.46 418.73 500.041C419.36 491.668 422.193 482.613 427.249 473.234C432.181 463.854 438.476 455.044 445.513 447.181C452.062 439.4 459.333 432.618 466.966 427.251C474.202 422.006 482.064 418.214 490.359 416.191C498.519 414.328 507.348 414.248 516.574 416.249C525.811 418.36 534.596 422.319 542.469 427.684C550.233 433.084 556.897 439.87 561.965 447.617C566.738 455.379 569.731 464.13 570.572 473.447C571.071 482.807 569.407 492.746 565.426 502.795Z" stroke="url(#paint21_linear_336_6935)" stroke-width="2" stroke-linecap="round" stroke-dasharray="8 3"/>
<path opacity="0.22" d="M550.978 503.849C543.17 519.337 530.201 531.289 515.623 537.873C501.496 544.19 485.291 545.086 469.758 539.386C454.232 534.019 442.504 523.709 436.765 511.407C431.787 499.535 433.381 485.191 442.343 470.716C450.997 456.235 463.917 444.259 477.701 436.803C490.589 429.574 505.336 427.202 519.88 431.504C534.442 436.088 546.158 446.424 552.7 459.474C558.589 472.561 558.504 488.379 550.978 503.849Z" stroke="url(#paint22_linear_336_6935)" stroke-width="2" stroke-linecap="round" stroke-dasharray="11 6"/>
<path opacity="0.99" d="M536.829 502.554C530.058 513.612 519.526 521.689 507.991 525.728C496.635 529.653 484.102 529.532 472.853 524.578C461.595 519.807 453.853 511.415 450.743 501.742C447.941 492.306 449.979 481.39 457.36 470.968C464.569 460.525 475.09 452.423 486.22 447.844C496.916 443.33 508.642 442.558 519.341 446.683C530.044 450.98 537.785 459.384 541.378 469.502C544.674 479.654 543.429 491.475 536.829 502.554Z" stroke="url(#paint23_linear_336_6935)" stroke-width="2" stroke-linecap="round" stroke-dasharray="9 8"/>
<path opacity="0.44" d="M523.247 499.101C513.093 513.01 493.467 518.163 479.075 510.645C464.657 503.446 461.294 487.155 471.945 473.854C482.303 460.504 501.334 454.632 515.28 461.227C529.202 468.117 533.122 485.134 523.247 499.101Z" stroke="url(#paint24_linear_336_6935)" stroke-width="2" stroke-linecap="round" stroke-dasharray="6 10"/>
<defs>
<linearGradient id="paint0_linear_336_6935" x1="503.578" y1="128.75" x2="503.578" y2="879.389" gradientUnits="userSpaceOnUse">
<stop stop-color="#1F89DB"/>
<stop offset="1" stop-color="#F42A8B"/>
</linearGradient>
<linearGradient id="paint1_linear_336_6935" x1="527.491" y1="143.549" x2="476.563" y2="864.618" gradientUnits="userSpaceOnUse">
<stop stop-color="#1F89DB"/>
<stop offset="1" stop-color="#F42A8B"/>
</linearGradient>
<linearGradient id="paint2_linear_336_6935" x1="549.359" y1="159.847" x2="451.657" y2="848.061" gradientUnits="userSpaceOnUse">
<stop stop-color="#1F89DB"/>
<stop offset="1" stop-color="#F42A8B"/>
</linearGradient>
<linearGradient id="paint3_linear_336_6935" x1="569.091" y1="177.422" x2="428.967" y2="829.932" gradientUnits="userSpaceOnUse">
<stop stop-color="#1F89DB"/>
<stop offset="1" stop-color="#F42A8B"/>
</linearGradient>
<linearGradient id="paint4_linear_336_6935" x1="586.611" y1="196.056" x2="408.578" y2="810.448" gradientUnits="userSpaceOnUse">
<stop stop-color="#1F89DB"/>
<stop offset="1" stop-color="#F42A8B"/>
</linearGradient>
<linearGradient id="paint5_linear_336_6935" x1="601.897" y1="215.544" x2="390.592" y2="789.855" gradientUnits="userSpaceOnUse">
<stop stop-color="#1F89DB"/>
<stop offset="1" stop-color="#F42A8B"/>
</linearGradient>
<linearGradient id="paint6_linear_336_6935" x1="614.928" y1="235.656" x2="375.067" y2="768.375" gradientUnits="userSpaceOnUse">
<stop stop-color="#1F89DB"/>
<stop offset="1" stop-color="#F42A8B"/>
</linearGradient>
<linearGradient id="paint7_linear_336_6935" x1="625.607" y1="256.148" x2="361.963" y2="746.199" gradientUnits="userSpaceOnUse">
<stop stop-color="#1F89DB"/>
<stop offset="1" stop-color="#F42A8B"/>
</linearGradient>
<linearGradient id="paint8_linear_336_6935" x1="633.893" y1="276.797" x2="351.265" y2="723.524" gradientUnits="userSpaceOnUse">
<stop stop-color="#1F89DB"/>
<stop offset="1" stop-color="#F42A8B"/>
</linearGradient>
<linearGradient id="paint9_linear_336_6935" x1="640.217" y1="297.658" x2="343.387" y2="700.858" gradientUnits="userSpaceOnUse">
<stop stop-color="#1F89DB"/>
<stop offset="1" stop-color="#F42A8B"/>
</linearGradient>
<linearGradient id="paint10_linear_336_6935" x1="644.276" y1="318.32" x2="338.573" y2="677.519" gradientUnits="userSpaceOnUse">
<stop stop-color="#1F89DB"/>
<stop offset="1" stop-color="#F42A8B"/>
</linearGradient>
<linearGradient id="paint11_linear_336_6935" x1="646.124" y1="338.512" x2="335.565" y2="655.202" gradientUnits="userSpaceOnUse">
<stop stop-color="#1F89DB"/>
<stop offset="1" stop-color="#F42A8B"/>
</linearGradient>
<linearGradient id="paint12_linear_336_6935" x1="645.906" y1="358.043" x2="334.904" y2="633.388" gradientUnits="userSpaceOnUse">
<stop stop-color="#1F89DB"/>
<stop offset="1" stop-color="#F42A8B"/>
</linearGradient>
<linearGradient id="paint13_linear_336_6935" x1="643.74" y1="376.745" x2="336.538" y2="612.299" gradientUnits="userSpaceOnUse">
<stop stop-color="#1F89DB"/>
<stop offset="1" stop-color="#F42A8B"/>
</linearGradient>
<linearGradient id="paint14_linear_336_6935" x1="639.741" y1="394.469" x2="340.383" y2="592.16" gradientUnits="userSpaceOnUse">
<stop stop-color="#1F89DB"/>
<stop offset="1" stop-color="#F42A8B"/>
</linearGradient>
<linearGradient id="paint15_linear_336_6935" x1="634.021" y1="411.058" x2="346.335" y2="573.161" gradientUnits="userSpaceOnUse">
<stop stop-color="#1F89DB"/>
<stop offset="1" stop-color="#F42A8B"/>
</linearGradient>
<linearGradient id="paint16_linear_336_6935" x1="626.709" y1="426.361" x2="354.28" y2="555.486" gradientUnits="userSpaceOnUse">
<stop stop-color="#1F89DB"/>
<stop offset="1" stop-color="#F42A8B"/>
</linearGradient>
<linearGradient id="paint17_linear_336_6935" x1="617.948" y1="440.292" x2="364.139" y2="539.35" gradientUnits="userSpaceOnUse">
<stop stop-color="#1F89DB"/>
<stop offset="1" stop-color="#F42A8B"/>
</linearGradient>
<linearGradient id="paint18_linear_336_6935" x1="607.787" y1="452.731" x2="375.68" y2="524.935" gradientUnits="userSpaceOnUse">
<stop stop-color="#1F89DB"/>
<stop offset="1" stop-color="#F42A8B"/>
</linearGradient>
<linearGradient id="paint19_linear_336_6935" x1="596.573" y1="463.456" x2="388.599" y2="512.389" gradientUnits="userSpaceOnUse">
<stop stop-color="#1F89DB"/>
<stop offset="1" stop-color="#F42A8B"/>
</linearGradient>
<linearGradient id="paint20_linear_336_6935" x1="584.317" y1="472.481" x2="402.696" y2="501.897" gradientUnits="userSpaceOnUse">
<stop stop-color="#1F89DB"/>
<stop offset="1" stop-color="#F42A8B"/>
</linearGradient>
<linearGradient id="paint21_linear_336_6935" x1="571.138" y1="479.72" x2="417.78" y2="493.569" gradientUnits="userSpaceOnUse">
<stop stop-color="#1F89DB"/>
<stop offset="1" stop-color="#F42A8B"/>
</linearGradient>
<linearGradient id="paint22_linear_336_6935" x1="557.017" y1="485.117" x2="433.78" y2="487.527" gradientUnits="userSpaceOnUse">
<stop stop-color="#1F89DB"/>
<stop offset="1" stop-color="#F42A8B"/>
</linearGradient>
<linearGradient id="paint23_linear_336_6935" x1="542.787" y1="488.522" x2="449.986" y2="483.788" gradientUnits="userSpaceOnUse">
<stop stop-color="#1F89DB"/>
<stop offset="1" stop-color="#F42A8B"/>
</linearGradient>
<linearGradient id="paint24_linear_336_6935" x1="528.038" y1="489.96" x2="466.497" y2="482.448" gradientUnits="userSpaceOnUse">
<stop stop-color="#1F89DB"/>
<stop offset="1" stop-color="#F42A8B"/>
</linearGradient>
</defs>
</svg>
