<svg width="221" height="256" viewBox="0 0 221 256" fill="none" xmlns="http://www.w3.org/2000/svg">
<path d="M156.383 12.9114C149.049 7.41944 139.64 3.21144 130.205 1.20494C123.068 -0.313303 109.463 -0.40215 102.002 1.02174C97.2435 1.92907 89.4761 4.53627 82.6936 7.502C81.4618 8.04058 81.3388 3.63131 82.524 1.42274C83.6525 -0.679689 82.8512 -0.561758 75.0791 2.51483C36.0266 17.974 11.6363 68.3798 15.6943 108.969C29.0397 78.7855 65.1723 66.586 77.8117 63.9762C78.2872 63.4989 79.5856 60.8821 80.5761 57.855C87.0376 38.11 98.9997 26.0684 115.027 20.0481C120.174 18.1148 129.903 16.4739 136.413 16.4408C142.57 16.4094 156.364 18.2964 161.713 19.9019C163.684 20.4932 165.297 20.8242 165.297 20.637C165.297 20.1669 160.373 15.8999 156.383 12.9114Z" fill="white"/>
<path fill-rule="evenodd" clip-rule="evenodd" d="M201.098 74.4465C202.447 82.6549 202.335 95.9064 200.851 103.535C196.751 124.622 183.908 143.637 166.046 155.068C162.935 157.059 159.72 159.12 158.903 159.647C157.657 160.452 157.99 160.53 160.966 160.134C162.917 159.874 165.934 159.198 167.668 158.631L170.823 157.601L166.108 162.012C154.298 173.064 137.445 181.068 120.912 183.479C117.249 184.012 117.501 184.03 107.035 184.03L103.185 183.734L101.26 183.586C99.9796 183.488 98.7129 183.262 97.4902 182.871C97.2388 182.79 96.9696 182.703 96.6874 182.609C92.0271 181.067 88.693 177.441 86.3452 173.13L85.1443 170.924C84.9345 170.539 84.7226 170.163 84.5396 169.765C83.4246 167.336 79.7048 157.28 84.3955 139.153C85.5125 134.837 88.4744 130.717 88.4744 130.717C88.4744 130.717 91.6337 125.978 95.0595 122.205C96.7676 120.449 96.7676 120.252 97.0569 121.142C97.1625 121.634 98.7027 125.659 100.679 129.596C104.972 136.187 115.429 141.249 118.054 142.148C123.453 143.999 129.48 143.626 136.914 143.611C147.938 143.588 155.711 141.263 164.62 135.323C184.193 122.269 196.307 101.657 199.143 76.5788L200.082 68.2698L201.098 74.4465Z" fill="white"/>
<path d="M90.7786 61.3573C94.0299 61.1499 99.9771 62.3576 99.9284 63.2153C76.3119 67.3572 28.9482 82.0961 20.62 112.127C19.9381 114.586 19.7288 117.168 20.1326 119.688C21.6992 129.464 28.7093 143.724 38.9126 153.424C46.2614 112.463 84.0449 89.4937 101.816 83.0382C104.534 81.8439 106.846 80.9562 106.954 81.0656C85.2829 91.242 41.5837 121.42 49.8141 158.858C52.3397 170.347 74.6523 177.514 79.9837 179.654C79.4373 168.793 74.2201 149.493 83.9339 131.288C88.1918 123.308 97.9973 110.422 106.024 103.718C113.779 97.2404 123.548 91.7403 135.826 87.9553C146.007 85.4533 158.711 83.5978 166.282 86.7444C166.522 86.8442 166.883 88.7695 167.113 88.491C169.442 86.4949 168.401 81.7605 167.446 80.4237C164.477 76.2652 159.081 74.8408 154.368 72.5504C150.14 70.4958 150.007 70.4673 148.338 71.2649C145.333 72.7007 136.107 74.804 134.398 74.4431C132.029 73.9422 129.633 72.3051 128.441 70.3735C126.811 67.7309 127.008 67.4789 130.701 67.4789C133.966 67.4789 136.469 68.2873 139.864 70.4388C141.133 71.2426 141.446 71.2379 144.68 70.3605L148.14 69.4224L146.947 68.1426C144.89 65.9372 137.073 60.9917 132.877 59.2416C126.364 56.5249 121.606 55.4956 114.182 55.1974C106.412 54.8852 100.547 55.8477 93.4512 58.5996C87.2406 61.0088 86.6469 61.6208 90.7786 61.3573Z" fill="white"/>
<path d="M0 244.415V206.901H23.5053V214.771H9.18177V221.592H20.6196V229.462H9.18177V236.545H24.2399V244.415H0Z" fill="white"/>
<path d="M27.3469 236.807C27.3469 235.094 27.8191 233.607 28.7635 232.348C29.7079 231.088 30.9497 230.127 32.4887 229.462C34.0627 228.797 35.6892 228.325 37.3682 228.045C39.0471 227.731 40.796 227.573 42.6149 227.573H43.4019V227.101C43.4019 225.107 42.1252 224.11 39.5718 224.11C37.1933 224.11 34.7098 224.967 32.1214 226.681L28.9734 220.28C30.1976 219.336 31.8766 218.514 34.0103 217.814C36.1789 217.115 38.3126 216.765 40.4113 216.765C44.1539 216.765 47.0921 217.744 49.2258 219.703C51.3944 221.662 52.4787 224.355 52.4787 227.783V244.415H44.1889V242.789L44.2938 241.11H44.1889C43.3145 242.334 42.1427 243.296 40.6736 243.995C39.2395 244.695 37.7354 245.045 36.1614 245.045C33.573 245.045 31.4569 244.258 29.8129 242.684C28.1689 241.11 27.3469 239.151 27.3469 236.807ZM36.3188 235.968C36.3188 236.633 36.5462 237.192 37.0009 237.647C37.4556 238.067 38.0852 238.277 38.8897 238.277C40.1489 238.277 41.2332 237.769 42.1427 236.755C43.0521 235.741 43.5068 234.656 43.5068 233.502V232.767H42.6674C40.9884 232.767 39.5018 233.03 38.2076 233.554C36.9484 234.044 36.3188 234.849 36.3188 235.968Z" fill="white"/>
<path d="M62.0138 246.147C64.3923 247.301 66.9283 247.878 69.6216 247.878C73.784 247.878 75.8652 246.147 75.8652 242.684V241.792L75.9177 240.795H75.8127C74.2387 242.684 71.9826 243.628 69.0444 243.628C65.1968 243.628 62.2062 242.299 60.0725 239.641C57.9389 236.982 56.872 233.782 56.872 230.039C56.872 226.331 57.9214 223.201 60.0201 220.648C62.1188 218.059 65.1094 216.765 68.992 216.765C72.14 216.765 74.5885 217.639 76.3374 219.388H76.4948C76.4598 219.178 76.4423 218.969 76.4423 218.759V217.395H84.942V241.949C84.942 244.328 84.5048 246.409 83.6303 248.193C82.7559 249.977 81.5666 251.376 80.0626 252.39C78.5585 253.44 76.932 254.209 75.1831 254.699C73.4692 255.188 71.6328 255.433 69.6741 255.433C65.9314 255.433 62.521 254.629 59.4429 253.02L62.0138 246.147ZM66.0014 229.724C66.0014 231.543 66.4386 233.065 67.313 234.289C68.1875 235.478 69.4817 236.073 71.1956 236.073C72.5947 236.073 73.749 235.636 74.6584 234.761C75.6029 233.852 76.0751 232.313 76.0751 230.144C76.0751 226.262 74.3261 224.32 70.8283 224.32C69.2893 224.32 68.1 224.827 67.2606 225.842C66.4211 226.821 66.0014 228.115 66.0014 229.724Z" fill="white"/>
<path d="M90.9758 234.446V206.901H100.053V233.24C100.053 234.569 100.21 235.478 100.525 235.968C100.875 236.458 101.557 236.702 102.571 236.702C103.026 236.702 103.393 236.685 103.673 236.65V244.52C102.414 244.625 101.504 244.678 100.945 244.678C99.5454 244.678 98.3212 244.573 97.2718 244.363C96.2575 244.118 95.2256 243.663 94.1763 242.999C93.1619 242.334 92.3749 241.285 91.8152 239.851C91.2556 238.416 90.9758 236.615 90.9758 234.446Z" fill="white"/>
<path d="M106.466 230.879C106.466 226.821 107.743 223.463 110.296 220.805C112.85 218.112 116.26 216.765 120.528 216.765C124.41 216.765 127.453 217.989 129.657 220.438C131.895 222.851 133.015 225.982 133.015 229.829C133.015 230.459 132.945 231.403 132.805 232.663H115.753C116.068 234.237 116.802 235.443 117.957 236.283C119.146 237.087 120.51 237.49 122.049 237.49C124.288 237.49 126.771 236.58 129.499 234.761L132.857 241.11C131.423 242.334 129.657 243.296 127.558 243.995C125.494 244.695 123.413 245.045 121.315 245.045C116.732 245.045 113.112 243.646 110.454 240.847C107.795 238.049 106.466 234.726 106.466 230.879ZM115.963 227.468H124.043C124.043 226.314 123.693 225.352 122.993 224.583C122.329 223.813 121.437 223.428 120.318 223.428C118.009 223.428 116.558 224.775 115.963 227.468Z" fill="white"/>
<path d="M149.26 225.579C149.26 220.088 151.113 215.506 154.821 211.833C158.564 208.125 163.268 206.271 168.935 206.271C174.776 206.271 179.586 207.933 183.363 211.256L178.956 218.129C177.872 217.15 176.473 216.328 174.759 215.663C173.045 214.999 171.401 214.666 169.827 214.666C166.119 214.666 163.338 215.681 161.484 217.709C159.666 219.703 158.756 222.222 158.756 225.265C158.756 228.727 159.788 231.491 161.852 233.554C163.95 235.618 166.504 236.65 169.512 236.65C172.24 236.65 174.776 235.741 177.12 233.922V231.036H171.82V223.218H185.252V244.415H177.592V243.366L177.644 241.792H177.539C176.42 242.771 174.951 243.558 173.132 244.153C171.348 244.747 169.529 245.045 167.676 245.045C162.639 245.045 158.301 243.278 154.664 239.746C151.061 236.213 149.26 231.491 149.26 225.579Z" fill="white"/>
<path d="M193.827 241.162C190.889 238.539 189.42 235.146 189.42 230.984C189.42 226.821 190.889 223.411 193.827 220.752C196.765 218.094 200.386 216.765 204.688 216.765C209.025 216.765 212.663 218.094 215.601 220.752C218.574 223.376 220.061 226.786 220.061 230.984C220.061 235.146 218.592 238.539 215.654 241.162C212.715 243.751 209.078 245.045 204.74 245.045C200.403 245.045 196.765 243.751 193.827 241.162ZM198.602 230.984C198.602 232.942 199.196 234.516 200.386 235.706C201.575 236.895 203.026 237.49 204.74 237.49C206.454 237.49 207.906 236.895 209.095 235.706C210.284 234.516 210.879 232.942 210.879 230.984C210.879 228.99 210.284 227.381 209.095 226.157C207.906 224.932 206.454 224.32 204.74 224.32C203.026 224.32 201.575 224.932 200.386 226.157C199.196 227.381 198.602 228.99 198.602 230.984Z" fill="white"/>
</svg>
