<svg width="102" height="117" viewBox="0 0 102 117" fill="none" xmlns="http://www.w3.org/2000/svg">
<path fill-rule="evenodd" clip-rule="evenodd" d="M51.8096 17.0137C51.5367 11.4627 49.798 6.23632 47.2069 3.99665C42.8206 0.205138 35.0267 -0.0783547 30.4521 1.95884C23.8223 4.91112 26.2091 11.0115 20.6346 14.179C18.2725 15.5208 5.66825 14.4803 5.82419 18.189C6.55916 35.6428 29.9121 26.8836 30.9898 33.1734C33.0953 45.46 22.4318 48.8487 23.0646 77.6024C21.0371 84.8243 22.4744 92.4061 25.4802 99.0943C28.4086 105.61 33.412 108.8 39.642 111.796C45.2199 114.479 63.4694 117.186 68.6105 114.466C81.7884 107.493 81.8135 92.6992 77.2196 80.1824C76.2528 77.5483 71.8947 69.1082 69.9651 67.0595C49.6714 43.5192 51.0558 41.0886 51.7467 28.4363C46.8814 31.5321 39.3984 29.5684 37.6692 22.4973C36.8502 19.1476 36.1028 15.7103 36.0378 12.2382C35.9979 10.1058 38.1285 9.78365 38.389 12.198C38.7321 15.3763 39.4105 18.7928 40.1672 21.8868C41.6441 27.9283 48.7222 28.8851 51.8972 24.863C51.9588 22.5952 51.957 20.017 51.8096 17.0137Z" fill="#68C7F2"/>
<path fill-rule="evenodd" clip-rule="evenodd" d="M67.4678 71.8831C73.9381 67.0214 80.2754 64.9437 82.276 56.7472C83.3655 52.2833 83.5284 51.3652 82.2528 49.6765C81.3153 48.4353 78.9306 46.7293 78.965 43.1363C78.9977 39.7108 80.1355 38.7993 80.1013 36.7102C80.0838 35.6262 77.6646 32.2641 77.2497 26.1386C81.6157 31.2441 84.7182 33.1347 85.7895 32.9875C86.4743 32.8936 86.3616 32.2583 89.5245 31.8482C92.9519 31.404 92.7551 32.2097 93.5841 31.9473C94.6621 31.6061 93.239 28.0905 97.019 23.8596C97.0918 29.7986 98.1867 33.0954 99.0888 33.7488C101.429 35.4433 102.13 41.9728 101.755 44.6761C100.726 52.0999 96.4926 48.9926 92.439 57.1307C86.6771 68.6978 84.3365 88.9183 88.5898 100.998C89.7451 104.28 94.4738 115.709 94.1915 115.738C83.7789 116.804 62.7817 116.386 52.5395 116.274C0.651745 115.704 37.8265 68.1713 4.37588 66.9803C-0.580052 66.8039 -1.94784 64.8761 4.50523 64.4545C41.4041 62.0441 8.44814 116.349 55.1382 110.745C56.4045 110.593 42.3748 90.7367 67.4678 71.8831Z" fill="#68C7F2"/>
<path fill-rule="evenodd" clip-rule="evenodd" d="M39.1147 11.3399C39.4776 13.2442 45.2365 14.2765 47.2507 11.0214C47.7569 10.203 49.9259 7.23684 49.0752 6.3562C51.6917 11.0208 54.4578 17.4394 54.1142 20.7946C53.1302 30.3991 42.2839 30.8122 39.8499 21.3742C39.0645 18.3282 39.1147 14.5687 39.1147 11.3399Z" fill="#68C7F2"/>
</svg>
