<svg width="319" height="319" viewBox="0 0 319 319" fill="none" xmlns="http://www.w3.org/2000/svg">
<g opacity="0.15">
<path d="M163.378 151.408H154.046V131.541L171.28 114.684L154.046 98.4299L154.423 67.6504C154.423 55.4595 161.12 43.0429 169.549 36.496C178.128 30.1747 185.954 28.2927 195.737 28.2927C207.778 28.2927 219.969 33.4858 226.892 41.0866C233.74 48.7624 236.6 58.3191 236.6 68.2525C236.6 85.0341 222.076 98.0531 203.714 98.0531C197.844 98.0531 191.673 97.0751 186.707 94.4414C182.116 91.958 178.128 89.4742 175.494 85.2602C172.032 80.4439 170.452 74.5737 170.452 68.403C170.452 55.8357 181.213 44.3216 194.985 43.193C201.607 42.666 209.283 45.3003 213.723 49.7405C218.087 53.8792 219.818 59.0714 220.194 66.8977C220.345 67.8761 219.969 68.4031 219.216 72.241C218.689 76.3047 211.766 83.7551 202.961 83.5296C193.404 83.1532 186.556 76.6808 186.556 68.2525C186.556 65.7691 187.911 63.4366 189.566 61.5555C191.147 59.8246 192.275 60.0498 193.63 59.6734C195.135 59.0714 199.951 59.0716 201.607 61.3292C202.585 62.3072 203.187 63.4363 203.338 65.0166C203.563 66.5217 203.338 68.0265 202.961 69.3809L198.973 69.6072C199.725 67.8767 199.349 63.8133 196.49 62.9102C194.985 62.5338 193.78 63.0596 192.877 63.8124C192.049 64.4143 191.147 65.3928 190.77 67.6504C189.792 72.6172 195.737 79.3147 202.811 78.4116C209.659 77.5841 213.271 74.1982 213.873 68.0272C214.626 57.7174 207.401 49.7405 196.264 49.7405C185.201 49.7405 177.526 57.9427 177.526 68.2525C177.526 82.0237 188.437 91.2055 203.338 91.2055C218.087 91.2055 228.247 81.2711 228.247 67.4998C228.247 50.2668 214.852 36.7213 196.49 36.7213C177.977 36.7213 163.603 50.8689 163.378 68.2525V93.3119L185.578 115.663L181.965 118.899L163.378 136.884V151.408V151.408Z" fill="white"/>
<path d="M154.046 151.931H163.377V132.065L146.37 115.282L163.377 99.0273L163.227 68.2488C163.001 55.9822 156.529 43.566 147.95 37.0944C139.522 30.7731 131.47 28.8911 121.912 28.8911C109.722 28.8911 97.4551 34.0092 90.6071 41.685C83.6838 49.2855 81.0498 58.8419 81.0498 68.8509C81.0498 85.6322 95.5738 98.6515 113.71 98.6515C119.805 98.6515 125.976 97.6728 130.717 95.0388C135.308 92.4801 139.296 89.9976 142.231 85.8586C145.467 81.0423 147.198 75.0968 147.198 69.0014C147.198 56.3588 136.286 44.9204 122.665 43.7914C115.817 43.1895 108.141 45.8983 103.776 50.1126C99.5623 54.4775 97.6808 59.6698 97.3044 67.4961C97.3044 68.3992 97.6809 69.0015 98.2075 72.8394C98.8098 76.8278 105.884 84.2786 114.463 84.128C124.02 83.7516 130.943 77.2039 130.943 68.8509C130.943 66.2922 129.739 64.035 128.083 62.1539C126.353 60.423 125.374 60.5734 123.869 60.197C122.289 59.6703 117.699 59.67 115.817 61.9276C115.065 62.9059 114.463 64.0349 114.312 65.5402C114.086 67.1206 114.086 68.6255 114.463 69.9803L118.526 70.1309C117.699 68.4 118.15 64.4112 121.009 63.4328C122.665 63.0564 123.643 63.6583 124.622 64.4108C125.6 65.0127 126.352 65.9159 126.879 68.2488C127.707 73.2156 121.762 79.9133 114.839 78.9353C107.765 78.1824 104.378 74.7203 103.776 68.6246C102.798 58.3151 110.098 50.2631 121.16 50.2631C132.222 50.2631 140.124 58.4655 140.124 68.8509C140.124 82.5468 128.986 91.7282 114.312 91.7282C99.5624 91.7282 89.4781 81.795 89.4781 68.0235C89.4781 50.8657 102.648 37.2439 121.009 37.2439C139.522 37.2439 154.046 51.3917 154.046 68.8509V93.8356L131.846 116.186L135.534 119.497L154.046 137.407V151.931V151.931Z" fill="white"/>
<path d="M163.224 167.446L153.818 167.672V187.539L170.9 204.169L153.818 220.424L154.043 251.354C154.269 263.62 160.741 275.811 169.32 282.358C177.748 288.83 185.8 290.711 195.358 290.711C207.549 290.711 219.815 285.369 226.663 277.768C233.587 270.092 236.22 260.761 236.22 250.827C236.22 233.82 221.697 220.8 203.56 220.8C197.465 220.8 191.294 221.93 186.553 224.413C181.963 226.896 177.974 229.605 175.039 233.594C171.803 238.41 170.072 244.505 170.072 250.45C170.072 263.244 180.984 274.532 194.605 275.66C201.453 276.187 209.129 273.553 213.494 269.339C217.708 265.125 219.59 259.782 219.966 251.956C219.966 251.203 219.589 250.602 219.062 246.613C218.235 242.775 211.387 235.099 202.808 235.475C193.025 235.701 186.327 242.399 186.327 250.827C186.327 253.085 187.531 255.568 189.187 257.299C190.918 259.18 191.896 258.804 193.401 259.406C194.982 259.782 199.572 259.782 201.453 257.675C202.206 256.546 202.808 255.418 202.958 254.063C203.184 252.482 203.184 250.827 202.808 249.472L198.594 249.247C199.346 250.978 199.12 255.192 196.11 255.944C194.605 256.546 193.627 255.794 192.649 255.192C191.67 254.439 190.918 253.46 190.391 251.203C189.563 246.236 195.508 239.539 202.431 240.442C209.28 241.42 212.892 244.882 213.494 250.978C214.472 261.287 207.172 269.114 196.11 269.114C185.048 269.114 177.146 260.911 177.146 250.601C177.146 236.83 188.284 227.874 202.958 227.874C217.708 227.874 227.792 237.583 227.792 251.58C227.792 268.738 214.623 282.358 196.11 282.358C177.748 282.358 163.224 267.985 163.224 250.827L162.999 225.541L185.424 203.417L181.586 199.956L163.224 181.97V167.446V167.446Z" fill="white"/>
<path d="M153.819 166.909L163.225 167.059V186.926L145.992 203.557L163.225 219.812L162.849 250.817C162.849 263.008 156.151 275.274 147.723 281.746C139.144 288.218 131.318 290.175 121.535 290.175C109.494 290.175 97.303 284.982 90.3797 277.155C83.5317 269.555 80.6719 260.148 80.6719 250.215C80.6719 233.207 95.1958 220.189 113.558 220.189C119.427 220.189 125.598 221.318 130.339 224.027C134.93 226.284 138.918 228.993 141.778 232.982C145.24 237.798 146.82 243.893 146.82 249.838C146.82 262.631 136.058 273.919 122.287 275.048C115.589 275.65 107.989 272.941 103.549 268.727C99.1843 264.512 97.4533 259.17 97.0772 251.343C96.9266 250.591 97.3029 249.988 97.8298 246C98.5824 242.162 105.506 234.562 114.084 234.938C123.867 235.088 130.716 241.786 130.716 250.215C130.716 252.472 129.361 254.956 127.705 256.687C125.975 258.643 124.996 258.267 123.642 258.793C122.137 259.169 117.32 259.169 115.439 257.062C114.686 255.933 114.084 254.805 113.934 253.451C113.708 251.946 113.934 250.215 114.31 248.86L118.299 248.71C117.546 250.44 117.922 254.58 120.782 255.408C122.287 255.934 123.491 255.407 124.244 254.579C125.147 253.827 126.125 252.924 126.501 250.591C127.48 245.624 121.535 238.927 114.461 239.905C107.613 240.883 104.001 244.269 103.399 250.44C102.646 260.75 109.87 268.576 121.008 268.576C132.07 268.576 139.746 260.374 139.746 249.989C139.746 236.292 128.609 227.263 113.934 227.263C99.1843 227.263 89.0252 237.045 89.0252 250.967C89.0252 268.2 102.27 281.746 120.782 281.746C139.144 281.746 153.668 267.448 153.668 250.215L153.819 225.005L131.694 202.805L135.306 199.343L153.819 181.433V166.909V166.909Z" fill="white"/>
<path d="M167.213 163.972V154.64H187.08L203.937 171.648L220.192 154.64L251.121 154.867C263.387 155.017 275.579 161.714 282.126 170.143C288.447 178.722 290.328 186.548 290.328 196.331C290.328 208.371 285.136 220.563 277.535 227.486C269.859 234.334 260.528 237.043 250.594 237.043C233.587 237.043 220.568 222.519 220.568 204.308C220.568 198.213 221.546 192.268 224.18 187.301C226.664 182.711 229.373 178.722 233.361 175.862C238.178 172.626 244.047 171.046 250.218 171.046C263.011 171.046 274.299 181.807 275.428 195.353C276.03 202.201 273.321 209.877 269.107 214.242C264.893 218.681 259.55 220.412 251.723 220.788C250.745 220.788 250.218 220.563 246.38 219.81C242.392 219.208 234.866 212.209 235.092 203.555C235.468 193.998 241.94 187.15 250.594 187.15C252.852 187.15 255.185 188.504 257.066 190.01C258.948 191.74 258.571 192.643 259.173 194.223C259.55 195.729 259.55 200.545 257.292 202.2C256.314 203.028 255.185 203.555 253.604 203.781C252.325 204.157 250.594 203.931 249.24 203.555L249.014 199.567C250.745 200.319 254.809 199.943 255.712 197.083C256.314 195.578 255.561 194.374 254.809 193.472C254.207 192.644 253.228 191.741 250.971 191.364C246.004 190.386 239.306 196.331 240.284 203.179C241.037 210.253 244.649 213.865 250.594 214.242C260.904 215.22 268.956 207.996 268.956 196.858C268.956 185.796 260.678 177.969 250.368 177.969C236.597 177.969 227.416 189.031 227.416 203.781C227.416 218.681 237.35 228.615 251.121 228.615C268.354 228.615 281.9 215.445 281.9 197.083C281.9 178.496 267.752 164.198 250.594 163.972H225.309L202.959 186.172L199.723 182.56L181.737 163.972H167.213V163.972Z" fill="white"/>
<path d="M166.687 154.643V163.975H186.554L203.336 146.967L219.591 163.975L250.595 163.825C262.786 163.599 275.052 156.901 281.524 148.548C287.845 139.893 289.727 132.068 289.727 122.36C289.727 110.319 284.609 98.0532 276.934 91.2053C269.333 84.282 259.926 81.6472 249.993 81.6472C232.986 81.6472 219.967 95.9459 219.967 114.308C219.967 120.253 220.945 126.348 223.654 131.315C226.137 135.905 228.771 139.894 232.835 142.828C237.576 146.064 243.521 147.57 249.616 147.57C262.41 147.57 273.698 136.883 274.827 123.263C275.429 116.414 272.719 108.739 268.505 104.374C264.366 100.009 258.948 98.2784 251.122 97.9023C250.219 97.9023 249.842 98.0529 245.778 98.8054C241.79 99.4077 234.34 106.481 234.491 115.059C234.867 124.617 241.414 131.541 249.993 131.541C252.326 131.541 254.583 130.186 256.465 128.681C258.421 126.95 258.045 125.972 258.572 124.467C258.948 122.887 258.948 118.145 256.69 116.414C255.712 115.662 254.583 115.06 253.078 114.684C251.724 114.533 249.993 114.683 248.638 115.059L248.488 119.124C250.219 118.296 254.207 118.672 255.185 121.607C255.712 123.112 254.96 124.241 254.207 125.22C253.605 125.972 252.702 126.95 250.369 127.326C245.402 128.229 238.705 122.36 239.683 115.436C240.436 108.362 244.048 104.75 249.993 104.374C260.303 103.396 268.355 110.695 268.355 121.757C268.355 132.82 260.152 140.496 249.842 140.496C236.071 140.496 226.89 129.585 226.89 114.91C226.89 100.01 236.824 89.8505 250.595 89.8505C267.978 89.8505 281.374 103.245 281.374 121.607C281.374 140.119 267.226 154.418 249.993 154.643H224.783L202.432 132.444L199.121 136.131L181.211 154.643H166.687V154.643Z" fill="white"/>
<path d="M150.054 164.578V155.246H130.187L113.33 172.254L97.0754 155.246L66.1461 155.397C53.8796 155.622 41.6887 162.32 35.1415 170.673C28.6696 179.327 26.939 187.154 26.939 196.711C26.939 208.902 32.1316 221.169 39.7321 228.017C47.4082 234.94 56.7396 237.574 66.6729 237.574C83.6804 237.574 96.6991 223.05 96.6991 204.913C96.6991 198.818 95.5706 192.873 93.0871 187.906C90.6037 183.315 87.8944 179.327 83.9059 176.468C79.0896 173.157 73.22 171.652 67.0492 171.652C54.2561 171.652 42.9679 182.338 41.8393 195.958C41.237 202.807 43.9464 210.483 48.1607 214.847C52.3747 219.212 57.7175 220.943 65.5442 221.319C66.2967 221.319 66.8988 221.168 70.8872 220.416C74.8757 219.814 82.4009 212.74 81.9495 204.161C81.799 194.604 75.3271 187.68 66.6729 187.68C64.4154 187.68 61.9319 189.035 60.201 190.615C58.2445 192.271 58.696 193.249 58.0941 194.754C57.7176 196.335 57.7175 201.076 59.9754 202.807C60.9535 203.56 62.0825 204.161 63.6629 204.311C64.9421 204.688 66.673 204.537 68.0274 204.161L68.2532 200.172C66.5223 200.925 62.4585 200.549 61.5557 197.614C60.9534 196.109 61.7061 194.98 62.3084 194.002C63.0609 193.249 64.039 192.271 66.2969 191.895C71.2634 190.992 77.961 196.861 76.9826 203.785C76.0795 210.859 72.6181 214.471 66.6729 214.847C56.3632 215.826 48.311 208.526 48.311 197.464C48.311 186.401 56.589 178.5 66.8987 178.5C80.67 178.5 89.6252 189.637 89.6252 204.311C89.6252 219.212 79.9173 229.22 66.1461 229.22C48.6872 229.22 35.1415 215.976 35.1415 197.614C35.1415 179.102 49.5152 164.804 66.6729 164.578H91.9582L114.083 186.777L117.544 183.09L135.53 164.578H150.054V164.578Z" fill="white"/>
<path d="M150.583 155.246V164.577H130.716L113.934 147.57L97.6796 164.577L66.675 164.427C54.4841 164.201 42.2176 157.503 35.7457 149.075C29.1989 140.496 27.3174 132.67 27.3174 122.887C27.3174 110.846 32.6603 98.6549 40.3361 91.7316C47.9369 84.8836 57.3435 82.1746 67.2769 82.1746C84.2844 82.1746 97.303 96.548 97.303 114.91C97.303 120.78 96.0992 126.95 93.6158 131.917C91.1324 136.507 88.4986 140.496 84.4348 143.356C79.6939 146.592 73.7489 148.172 67.6534 148.172C54.8603 148.172 43.5721 137.411 42.4435 123.865C41.8415 117.017 44.5504 109.341 48.6894 104.976C52.9037 100.536 58.2465 98.8057 66.1482 98.4296C66.9007 98.4296 67.4274 98.6547 71.4912 99.4075C75.3291 100.009 82.9299 107.084 82.5535 115.663C82.4029 125.22 75.8561 132.068 67.2769 132.068C64.944 132.068 62.4607 130.713 60.8054 129.208C58.8487 127.477 59.225 126.574 58.698 124.993C58.2466 123.488 58.2468 118.672 60.5796 117.016C61.558 116.189 62.6865 115.436 64.1915 115.286C65.5463 115.06 67.2768 115.286 68.6316 115.663L68.7819 119.651C67.0513 118.899 62.8372 119.274 62.0847 122.134C61.558 123.639 62.3104 124.843 62.837 125.746C63.6648 126.573 64.568 127.477 66.9008 127.853C71.8676 128.831 78.5649 122.887 77.5866 116.038C76.6085 108.965 73.2221 105.353 67.2769 104.976C56.9671 103.998 48.9152 111.222 48.9152 122.36C48.9152 133.422 57.1176 141.098 67.4274 141.098C81.199 141.098 90.2292 130.186 90.2292 115.436C90.2292 100.536 80.4466 90.4526 66.675 90.4526C49.2914 90.4526 35.7457 103.772 35.7457 122.134C35.7457 140.722 50.0439 155.02 67.2769 155.246H92.4869L114.687 133.046L118.148 136.658L136.059 155.246H150.583V155.246Z" fill="white"/>
<path d="M158.633 134.403L183.466 159.237L158.633 183.92L133.799 159.237L158.633 134.403Z" fill="white"/>
<path d="M166.309 151.411V166.913H150.957V151.411H166.309Z" fill="white"/>
<path d="M25.435 158.266L33.0359 153.149L25.435 147.956L17.7593 153.149L25.435 158.266Z" fill="white"/>
<path d="M25.2097 171.424L32.8854 166.306L25.2097 161.114L17.7593 166.306L25.2097 171.424Z" fill="white"/>
<path d="M34.7658 164.95L42.4417 159.833L34.7658 154.64L27.0898 159.833L34.7658 164.95Z" fill="white"/>
<path d="M15.6516 164.95L23.3273 159.833L15.6516 154.64L8.20117 159.833L15.6516 164.95Z" fill="white"/>
<path d="M293.038 157.735L300.488 152.542L293.038 147.351L285.362 152.542L293.038 157.735Z" fill="white"/>
<path d="M292.81 170.677L300.26 165.56L292.81 160.367L285.134 165.56L292.81 170.677Z" fill="white"/>
<path d="M302.368 164.202L309.818 159.011L302.368 153.893L294.692 159.011L302.368 164.202Z" fill="white"/>
<path d="M283.256 164.202L290.932 159.011L283.256 153.893L275.581 159.011L283.256 164.202Z" fill="white"/>
<path d="M156.754 293.187L151.562 285.586L146.369 293.187L151.562 300.712L156.754 293.187Z" fill="white"/>
<path d="M169.698 293.411L164.58 285.735L159.388 293.411L164.58 300.86L169.698 293.411Z" fill="white"/>
<path d="M163.225 283.861L158.032 276.185L152.915 283.861L158.032 291.31L163.225 283.861Z" fill="white"/>
<path d="M163.225 302.972L158.032 295.296L152.915 302.972L158.032 310.422L163.225 302.972Z" fill="white"/>
<path d="M157.281 27.1596L152.164 19.71L146.971 27.1596L152.164 34.7608L157.281 27.1596Z" fill="white"/>
<path d="M170.3 27.3205L165.107 19.8699L159.99 27.3205L165.107 34.9965L170.3 27.3205Z" fill="white"/>
<path d="M163.825 17.7602L158.633 10.5359L153.44 17.7602L158.633 25.4362L163.825 17.7602Z" fill="white"/>
<path d="M163.825 36.8729L158.633 29.2727L153.44 36.8729L158.633 44.5488L163.825 36.8729Z" fill="white"/>
</g>
</svg>
